<svg xmlns="http://www.w3.org/2000/svg" width="400" height="440" viewBox="0 0 400 440" preserveAspectRatio="xMidYMid meet"><rect width="400" height="440" fill="#FDFDFC"/><rect x="1" y="1" width="398" height="438" fill="none" stroke="#0A0A0A" stroke-width="2"/><text x="22" y="36" font-size="11" fill="#6B6B6B" text-anchor="start" textLength="160" lengthAdjust="spacingAndGlyphs" font-family="ui-monospace,SFMono-Regular,Menlo,Consolas,monospace">OVRFLO STREAMS</text><text x="378" y="36" font-size="11" fill="#6B6B6B" text-anchor="end" textLength="90" lengthAdjust="spacingAndGlyphs" font-family="ui-monospace,SFMono-Regular,Menlo,Consolas,monospace">ID 1</text><line x1="22" y1="48" x2="378" y2="48" stroke="#0A0A0A"/><text x="22" y="84" font-size="20" fill="#E8930C" text-anchor="start" textLength="240" lengthAdjust="spacingAndGlyphs" font-family="ui-monospace,SFMono-Regular,Menlo,Consolas,monospace">STREAMING</text><text x="22" y="116" font-size="11" fill="#6B6B6B" text-anchor="start" textLength="90" lengthAdjust="spacingAndGlyphs" font-family="ui-monospace,SFMono-Regular,Menlo,Consolas,monospace">PROGRESS</text><text x="378" y="116" font-size="15" fill="#0A0A0A" text-anchor="end" textLength="80" lengthAdjust="spacingAndGlyphs" font-family="ui-monospace,SFMono-Regular,Menlo,Consolas,monospace">37%</text><rect class="cell" x="22" y="132" width="13" height="18" fill="#0A0A0A" stroke="#0A0A0A"/><rect class="cell" x="37" y="132" width="13" height="18" fill="#0A0A0A" stroke="#0A0A0A"/><rect class="cell" x="52" y="132" width="13" height="18" fill="#0A0A0A" stroke="#0A0A0A"/><rect class="cell" x="67" y="132" width="13" height="18" fill="#0A0A0A" stroke="#0A0A0A"/><rect class="cell" x="82" y="132" width="13" height="18" fill="#0A0A0A" stroke="#0A0A0A"/><rect class="cell" x="97" y="132" width="13" height="18" fill="#0A0A0A" stroke="#0A0A0A"/><rect class="cell" x="112" y="132" width="13" height="18" fill="#0A0A0A" stroke="#0A0A0A"/><rect class="cell" x="127" y="132" width="13" height="18" fill="#0A0A0A" stroke="#0A0A0A"/><rect class="cell" x="142" y="132" width="13" height="18" fill="#E8930C" stroke="#E8930C"/><rect class="cell" x="157" y="132" width="13" height="18" fill="none" stroke="#0A0A0A"/><rect class="cell" x="172" y="132" width="13" height="18" fill="none" stroke="#0A0A0A"/><rect class="cell" x="187" y="132" width="13" height="18" fill="none" stroke="#0A0A0A"/><rect class="cell" x="202" y="132" width="13" height="18" fill="none" stroke="#0A0A0A"/><rect class="cell" x="217" y="132" width="13" height="18" fill="none" stroke="#0A0A0A"/><rect class="cell" x="232" y="132" width="13" height="18" fill="none" stroke="#0A0A0A"/><rect class="cell" x="247" y="132" width="13" height="18" fill="none" stroke="#0A0A0A"/><rect class="cell" x="262" y="132" width="13" height="18" fill="none" stroke="#0A0A0A"/><rect class="cell" x="277" y="132" width="13" height="18" fill="none" stroke="#0A0A0A"/><rect class="cell" x="292" y="132" width="13" height="18" fill="none" stroke="#0A0A0A"/><rect class="cell" x="307" y="132" width="13" height="18" fill="none" stroke="#0A0A0A"/><rect class="cell" x="322" y="132" width="13" height="18" fill="none" stroke="#0A0A0A"/><rect class="cell" x="337" y="132" width="13" height="18" fill="none" stroke="#0A0A0A"/><rect class="cell" x="352" y="132" width="13" height="18" fill="none" stroke="#0A0A0A"/><rect class="cell" x="367" y="132" width="13" height="18" fill="none" stroke="#0A0A0A"/><text x="22" y="168" font-size="11" fill="#6B6B6B" text-anchor="start" textLength="110" lengthAdjust="spacingAndGlyphs" font-family="ui-monospace,SFMono-Regular,Menlo,Consolas,monospace">STREAMED</text><text x="378" y="168" font-size="15" fill="#0A0A0A" text-anchor="end" textLength="200" lengthAdjust="spacingAndGlyphs" font-family="ui-monospace,SFMono-Regular,Menlo,Consolas,monospace">37 wstETH</text><line x1="22" y1="176" x2="378" y2="176" stroke="#DDDDDD"/><text x="22" y="200" font-size="11" fill="#6B6B6B" text-anchor="start" textLength="110" lengthAdjust="spacingAndGlyphs" font-family="ui-monospace,SFMono-Regular,Menlo,Consolas,monospace">REMAINING</text><text x="378" y="200" font-size="15" fill="#0A0A0A" text-anchor="end" textLength="200" lengthAdjust="spacingAndGlyphs" font-family="ui-monospace,SFMono-Regular,Menlo,Consolas,monospace">63 wstETH</text><line x1="22" y1="208" x2="378" y2="208" stroke="#DDDDDD"/><text x="22" y="232" font-size="11" fill="#6B6B6B" text-anchor="start" textLength="110" lengthAdjust="spacingAndGlyphs" font-family="ui-monospace,SFMono-Regular,Menlo,Consolas,monospace">RATE</text><text x="378" y="232" font-size="15" fill="#0A0A0A" text-anchor="end" textLength="200" lengthAdjust="spacingAndGlyphs" font-family="ui-monospace,SFMono-Regular,Menlo,Consolas,monospace">1 / day</text><line x1="22" y1="240" x2="378" y2="240" stroke="#DDDDDD"/><text x="22" y="264" font-size="11" fill="#6B6B6B" text-anchor="start" textLength="110" lengthAdjust="spacingAndGlyphs" font-family="ui-monospace,SFMono-Regular,Menlo,Consolas,monospace">DAYS LEFT</text><text x="378" y="264" font-size="15" fill="#0A0A0A" text-anchor="end" textLength="200" lengthAdjust="spacingAndGlyphs" font-family="ui-monospace,SFMono-Regular,Menlo,Consolas,monospace">63</text><line x1="22" y1="272" x2="378" y2="272" stroke="#DDDDDD"/><text x="22" y="296" font-size="11" fill="#6B6B6B" text-anchor="start" textLength="110" lengthAdjust="spacingAndGlyphs" font-family="ui-monospace,SFMono-Regular,Menlo,Consolas,monospace">END</text><text x="378" y="296" font-size="15" fill="#0A0A0A" text-anchor="end" textLength="200" lengthAdjust="spacingAndGlyphs" font-family="ui-monospace,SFMono-Regular,Menlo,Consolas,monospace">10 APR 2024</text><line x1="22" y1="304" x2="378" y2="304" stroke="#DDDDDD"/><text x="22" y="328" font-size="11" fill="#6B6B6B" text-anchor="start" textLength="110" lengthAdjust="spacingAndGlyphs" font-family="ui-monospace,SFMono-Regular,Menlo,Consolas,monospace">ASSET</text><text x="378" y="328" font-size="15" fill="#0A0A0A" text-anchor="end" textLength="200" lengthAdjust="spacingAndGlyphs" font-family="ui-monospace,SFMono-Regular,Menlo,Consolas,monospace">wstETH</text><line x1="22" y1="336" x2="378" y2="336" stroke="#DDDDDD"/><line x1="22" y1="360" x2="378" y2="360" stroke="#0A0A0A"/><text x="22" y="392" font-size="11" fill="#6B6B6B" text-anchor="start" textLength="160" lengthAdjust="spacingAndGlyphs" font-family="ui-monospace,SFMono-Regular,Menlo,Consolas,monospace">OVRFLO STREAM</text><text x="378" y="392" font-size="11" fill="#6B6B6B" text-anchor="end" textLength="140" lengthAdjust="spacingAndGlyphs" font-family="ui-monospace,SFMono-Regular,Menlo,Consolas,monospace">LINEAR LOCKUP</text></svg>