<svg xmlns="http://www.w3.org/2000/svg" width="1210" height="645" viewBox="0 0 484 258" font-family="Arial, sans-serif">
  <defs>
    <marker id="ah" viewBox="0 0 8 6" refX="8" refY="3"
      markerWidth="4" markerHeight="3" orient="auto">
      <path d="M0.5,0.5 L7,3 L0.5,5.5" fill="none" stroke="#94A3B8"
        stroke-width="1.2" stroke-linejoin="round" stroke-linecap="round"/>
    </marker>
    <filter id="shadow" x="-6%" y="-8%" width="112%" height="128%">
      <feDropShadow dx="0" dy="0.5" stdDeviation="0.8"
        flood-color="#000" flood-opacity="0.05"/>
    </filter>
  </defs>
  <rect width="484" height="258" fill="#F8F9FB" rx="3"/>
  <text x="242" y="11" text-anchor="middle" font-size="6" font-weight="700" fill="#1E293B">OVRFLO Architecture</text>
  <rect x="167" y="16" width="150" height="10" rx="3" fill="#fff" stroke="#E2E5EA" stroke-width="0.4"/>
  <rect x="172" y="18.5" width="5" height="5" rx="2.5" fill="#fff" stroke="#E2E5EA" stroke-width="0.4"/>
  <text x="180" y="22.5" font-size="3.5" fill="#1E293B">Actor</text>
  <rect x="212" y="18.5" width="5" height="5" rx="1.5" fill="#fff" stroke="#E2E5EA" stroke-width="0.4"/>
  <rect x="213" y="19.5" width="0.8" height="3" rx="0.4" fill="#3B82F6"/>
  <text x="220" y="22.5" font-size="3.5" fill="#1E293B">Protocol</text>
  <rect x="260" y="18.5" width="5" height="5" rx="1.5" fill="#fff" stroke="#E2E5EA" stroke-width="0.4"/>
  <rect x="261" y="19.5" width="0.8" height="3" rx="0.4" fill="#F59E0B"/>
  <text x="268" y="22.5" font-size="3.5" fill="#1E293B">External</text>
  <rect x="58.5" y="84.0" width="405.7" height="40.0" rx="5" fill="#EDEEF2"/>
  <text x="461.2" y="89.0" text-anchor="end" font-size="3.5" fill="#94A3B8" font-weight="500">Admin Hub</text>
  <rect x="58.5" y="146.0" width="405.7" height="40.0" rx="5" fill="#EDEEF2"/>
  <text x="461.2" y="151.0" text-anchor="end" font-size="3.5" fill="#94A3B8" font-weight="500">Protocol Contracts</text>
  <path d="M89.5,46.0 C89.5,70.0 109.7,70.0 109.7,94.0" fill="none" stroke="#94A3B8" stroke-width="0.5" marker-end="url(#ah)"/>
  <path d="M109.7,114.0 C109.7,135.0 125.4,135.0 125.4,156.0" fill="none" stroke="#94A3B8" stroke-width="0.5" marker-end="url(#ah)"/>
  <path d="M109.7,114.0 C109.7,135.0 216.2,135.0 216.2,156.0" fill="none" stroke="#94A3B8" stroke-width="0.5" marker-end="url(#ah)"/>
  <path d="M155.4,174.0 C191.9,188.0 240.5,188.0 277.0,176.0" fill="none" stroke="#94A3B8" stroke-width="0.5" marker-end="url(#ah)"/>
  <path d="M125.4,176.0 C125.4,197.0 71.2,197.0 71.2,218.0" fill="none" stroke="#94A3B8" stroke-width="0.5" marker-end="url(#ah)"/>
  <path d="M125.4,176.0 C125.4,197.0 304.0,197.0 304.0,218.0" fill="none" stroke="#94A3B8" stroke-width="0.5" marker-end="url(#ah)"/>
  <path d="M255.0,174.0 C290.1,188.0 336.8,188.0 371.8,176.0" fill="none" stroke="#94A3B8" stroke-width="0.5" marker-end="url(#ah)"/>
  <path d="M216.2,176.0 C216.2,197.0 304.0,197.0 304.0,218.0" fill="none" stroke="#94A3B8" stroke-width="0.5" marker-end="url(#ah)"/>
  <path d="M255.0,174.0 C261.6,196.0 270.4,196.0 277.0,176.0" fill="none" stroke="#94A3B8" stroke-width="0.5" marker-end="url(#ah)"/>
  <path d="M413.0,156.0 C413.0,135.0 109.7,135.0 109.7,114.0" fill="none" stroke="#94A3B8" stroke-width="0.5" marker-end="url(#ah)"/>
  <path d="M109.7,114.0 Q165.4,166.0 148.7,156.0" fill="none" stroke="#94A3B8" stroke-width="0.5" marker-end="url(#ah)"/>
  <path d="M148.7,156.0 Q167.4,166.0 187.6,218.0" fill="none" stroke="#94A3B8" stroke-width="0.5" marker-end="url(#ah)"/>
  <g filter="url(#shadow)">
    <rect x="33.9" y="32.0" width="111.2" height="14" rx="7" fill="#fff" stroke="#E2E5EA" stroke-width="0.5"/>
    <text x="89.5" y="40.8" text-anchor="middle" font-size="4.8" font-weight="600" fill="#1E293B">Timelocked Multisig</text>
  </g>
  <g filter="url(#shadow)">
    <rect x="68.5" y="94.0" width="82.4" height="20" rx="3" fill="#fff" stroke="#E2E5EA" stroke-width="0.5"/>
    <rect x="71.5" y="97.0" width="1.4" height="14" rx="0.6" fill="#3B82F6"/>
    <text x="109.7" y="103.5" text-anchor="middle" font-size="4.8" font-weight="600" fill="#1E293B">OVRFLOFactory</text>
    <text x="109.7" y="108.5" text-anchor="middle" font-size="3.5" fill="#64748B">Admin Hub</text>
  </g>
  <g filter="url(#shadow)">
    <rect x="95.4" y="156.0" width="60.0" height="20" rx="3" fill="#fff" stroke="#E2E5EA" stroke-width="0.5"/>
    <rect x="98.4" y="159.0" width="1.4" height="14" rx="0.6" fill="#3B82F6"/>
    <text x="125.4" y="165.5" text-anchor="middle" font-size="4.8" font-weight="600" fill="#1E293B">OVRFLO</text>
    <text x="125.4" y="170.5" text-anchor="middle" font-size="3.5" fill="#64748B">Core Vault</text>
  </g>
  <g filter="url(#shadow)">
    <rect x="277.0" y="156.0" width="72.8" height="20" rx="3" fill="#fff" stroke="#E2E5EA" stroke-width="0.5"/>
    <rect x="280.0" y="159.0" width="1.4" height="14" rx="0.6" fill="#3B82F6"/>
    <text x="313.4" y="165.5" text-anchor="middle" font-size="4.8" font-weight="600" fill="#1E293B">OVRFLOToken</text>
    <text x="313.4" y="170.5" text-anchor="middle" font-size="3.5" fill="#64748B">Receipt ERC20</text>
  </g>
  <g filter="url(#shadow)">
    <rect x="177.4" y="156.0" width="77.6" height="20" rx="3" fill="#fff" stroke="#E2E5EA" stroke-width="0.5"/>
    <rect x="180.4" y="159.0" width="1.4" height="14" rx="0.6" fill="#3B82F6"/>
    <text x="216.2" y="165.5" text-anchor="middle" font-size="4.8" font-weight="600" fill="#1E293B">OVRFLOBook</text>
    <text x="216.2" y="170.5" text-anchor="middle" font-size="3.5" fill="#64748B">Secondary Market</text>
  </g>
  <g filter="url(#shadow)">
    <rect x="371.8" y="156.0" width="82.4" height="20" rx="3" fill="#fff" stroke="#E2E5EA" stroke-width="0.5"/>
    <rect x="374.8" y="159.0" width="1.4" height="14" rx="0.6" fill="#3B82F6"/>
    <text x="413.0" y="165.5" text-anchor="middle" font-size="4.8" font-weight="600" fill="#1E293B">StreamPricing</text>
    <text x="413.0" y="170.5" text-anchor="middle" font-size="3.5" fill="#64748B">Pricing Library</text>
  </g>
  <g filter="url(#shadow)">
    <rect x="30.0" y="218.0" width="82.4" height="20" rx="3" fill="#fff" stroke="#E2E5EA" stroke-width="0.5"/>
    <rect x="33.0" y="221.0" width="1.4" height="14" rx="0.6" fill="#F59E0B"/>
    <text x="71.2" y="227.5" text-anchor="middle" font-size="4.8" font-weight="600" fill="#1E293B">Pendle Oracle</text>
    <text x="71.2" y="232.5" text-anchor="middle" font-size="3.5" fill="#64748B">TWAP Rate</text>
  </g>
  <g filter="url(#shadow)">
    <rect x="262.8" y="218.0" width="82.4" height="20" rx="3" fill="#fff" stroke="#E2E5EA" stroke-width="0.5"/>
    <rect x="265.8" y="221.0" width="1.4" height="14" rx="0.6" fill="#F59E0B"/>
    <text x="304.0" y="227.5" text-anchor="middle" font-size="4.8" font-weight="600" fill="#1E293B">Sablier V2 LL</text>
    <text x="304.0" y="232.5" text-anchor="middle" font-size="3.5" fill="#64748B">Streaming</text>
  </g>
  <g filter="url(#shadow)">
    <rect x="134.4" y="218.0" width="106.4" height="20" rx="3" fill="#fff" stroke="#E2E5EA" stroke-width="0.5"/>
    <rect x="137.4" y="221.0" width="1.4" height="14" rx="0.6" fill="#F59E0B"/>
    <text x="187.6" y="227.5" text-anchor="middle" font-size="4.8" font-weight="600" fill="#1E293B">Pendle Market / SY</text>
    <text x="187.6" y="232.5" text-anchor="middle" font-size="3.5" fill="#64748B">PT / Yield</text>
  </g>
  <rect x="92.8" y="65.0" width="13.6" height="6.0" rx="1" fill="#F8F9FB"/>
  <text x="99.6" y="70.0" font-size="4" fill="#1E293B" font-weight="500" text-anchor="middle">owns</text>
  <rect x="97.6" y="130.0" width="40.0" height="6.0" rx="1" fill="#F8F9FB"/>
  <text x="117.6" y="135.0" font-size="4" fill="#1E293B" font-weight="500" text-anchor="middle">deploys + admin</text>
  <rect x="144.2" y="130.0" width="37.6" height="6.0" rx="1" fill="#F8F9FB"/>
  <text x="163.0" y="135.0" font-size="4" fill="#1E293B" font-weight="500" text-anchor="middle">deploys + owns</text>
  <rect x="201.0" y="187.0" width="30.4" height="6.0" rx="1" fill="#F8F9FB"/>
  <text x="216.2" y="192.0" font-size="4" fill="#1E293B" font-weight="500" text-anchor="middle">mint / burn</text>
  <rect x="80.7" y="192.0" width="35.2" height="6.0" rx="1" fill="#F8F9FB"/>
  <text x="98.3" y="197.0" font-size="4" fill="#1E293B" font-weight="500" text-anchor="middle">PT-to-SY rate</text>
  <rect x="197.1" y="196.0" width="35.2" height="6.0" rx="1" fill="#F8F9FB"/>
  <text x="214.7" y="201.0" font-size="4" fill="#1E293B" font-weight="500" text-anchor="middle">create stream</text>
  <rect x="288.6" y="187.0" width="49.6" height="6.0" rx="1" fill="#F8F9FB"/>
  <text x="313.4" y="192.0" font-size="4" fill="#1E293B" font-weight="500" text-anchor="middle">price + eligibility</text>
  <rect x="237.7" y="192.0" width="44.8" height="6.0" rx="1" fill="#F8F9FB"/>
  <text x="260.1" y="197.0" font-size="4" fill="#1E293B" font-weight="500" text-anchor="middle">escrow + withdraw</text>
  <rect x="247.2" y="199.0" width="37.6" height="6.0" rx="1" fill="#F8F9FB"/>
  <text x="266.0" y="204.0" font-size="4" fill="#1E293B" font-weight="500" text-anchor="middle">claim proceeds</text>
  <rect x="241.4" y="130.0" width="40.0" height="6.0" rx="1" fill="#F8F9FB"/>
  <text x="261.4" y="135.0" font-size="4" fill="#1E293B" font-weight="500" text-anchor="middle">registry lookup</text>
  <rect x="158.5" y="177.1" width="30.4" height="6.0" rx="1" fill="#EDEEF2"/>
  <text x="173.7" y="182.1" font-size="4" fill="#1E293B" font-weight="500" text-anchor="middle">validate SY</text>
</svg>