<svg xmlns="http://www.w3.org/2000/svg" width="1223" height="490" viewBox="0 0 489 196" font-family="Arial, sans-serif">
  <defs>
    <marker id="ah" viewBox="0 0 8 6" refX="8" refY="3"
      markerWidth="4" markerHeight="3" orient="auto">
      <path d="M0.5,0.5 L7,3 L0.5,5.5" fill="none" stroke="#94A3B8"
        stroke-width="1.2" stroke-linejoin="round" stroke-linecap="round"/>
    </marker>
    <filter id="shadow" x="-6%" y="-8%" width="112%" height="128%">
      <feDropShadow dx="0" dy="0.5" stdDeviation="0.8"
        flood-color="#000" flood-opacity="0.05"/>
    </filter>
  </defs>
  <rect width="489" height="196" fill="#F8F9FB" rx="3"/>
  <text x="245" y="11" text-anchor="middle" font-size="6" font-weight="700" fill="#1E293B">OVRFLO Architecture</text>
  <rect x="170" y="16" width="150" height="10" rx="3" fill="#fff" stroke="#E2E5EA" stroke-width="0.4"/>
  <rect x="175" y="18.5" width="5" height="5" rx="2.5" fill="#fff" stroke="#E2E5EA" stroke-width="0.4"/>
  <text x="183" y="22.5" font-size="3.5" fill="#1E293B">Actor</text>
  <rect x="215" y="18.5" width="5" height="5" rx="1.5" fill="#fff" stroke="#E2E5EA" stroke-width="0.4"/>
  <rect x="216" y="19.5" width="0.8" height="3" rx="0.4" fill="#3B82F6"/>
  <text x="223" y="22.5" font-size="3.5" fill="#1E293B">Protocol</text>
  <rect x="263" y="18.5" width="5" height="5" rx="1.5" fill="#fff" stroke="#E2E5EA" stroke-width="0.4"/>
  <rect x="264" y="19.5" width="0.8" height="3" rx="0.4" fill="#F59E0B"/>
  <text x="271" y="22.5" font-size="3.5" fill="#1E293B">External</text>
  <rect x="32.7" y="84.0" width="436.5" height="102.0" rx="5" fill="#EDEEF2"/>
  <text x="466.3" y="89.0" text-anchor="end" font-size="3.5" fill="#94A3B8" font-weight="500">Vault</text>
  <rect x="32.7" y="84.0" width="436.5" height="102.0" rx="5" fill="#EDEEF2"/>
  <text x="466.3" y="89.0" text-anchor="end" font-size="3.5" fill="#94A3B8" font-weight="500">Book</text>
  <rect x="32.7" y="84.0" width="436.5" height="40.0" rx="5" fill="#EDEEF2"/>
  <text x="466.3" y="89.0" text-anchor="end" font-size="3.5" fill="#94A3B8" font-weight="500">Admin</text>
  <rect x="32.7" y="146.0" width="436.5" height="40.0" rx="5" fill="#EDEEF2"/>
  <text x="466.3" y="151.0" text-anchor="end" font-size="3.5" fill="#94A3B8" font-weight="500">External</text>
  <path d="M85.6,46.0 C85.6,70.0 83.9,70.0 83.9,94.0" fill="none" stroke="#94A3B8" stroke-width="0.5" marker-end="url(#ah)"/>
  <path d="M85.6,46.0 C85.6,70.0 195.8,70.0 195.8,94.0" fill="none" stroke="#94A3B8" stroke-width="0.5" marker-end="url(#ah)"/>
  <path d="M218.2,46.0 C218.2,70.0 286.6,70.0 286.6,94.0" fill="none" stroke="#94A3B8" stroke-width="0.5" marker-end="url(#ah)"/>
  <path d="M218.2,46.0 C218.2,70.0 195.8,70.0 195.8,94.0" fill="none" stroke="#94A3B8" stroke-width="0.5" marker-end="url(#ah)"/>
  <path d="M125.1,112.0 C164.6,130.0 217.2,130.0 256.6,114.0" fill="none" stroke="#94A3B8" stroke-width="0.5" marker-end="url(#ah)"/>
  <path d="M83.9,114.0 C83.9,135.0 109.7,135.0 109.7,156.0" fill="none" stroke="#94A3B8" stroke-width="0.5" marker-end="url(#ah)"/>
  <path d="M83.9,114.0 C83.9,135.0 209.3,135.0 209.3,156.0" fill="none" stroke="#94A3B8" stroke-width="0.5" marker-end="url(#ah)"/>
  <path d="M286.6,114.0 C286.6,135.0 109.7,135.0 109.7,156.0" fill="none" stroke="#94A3B8" stroke-width="0.5" marker-end="url(#ah)"/>
  <path d="M286.6,114.0 C286.6,135.0 209.3,135.0 209.3,156.0" fill="none" stroke="#94A3B8" stroke-width="0.5" marker-end="url(#ah)"/>
  <path d="M286.6,114.0 C286.6,135.0 418.1,135.0 418.1,156.0" fill="none" stroke="#94A3B8" stroke-width="0.5" marker-end="url(#ah)"/>
  <path d="M195.8,114.0 C195.8,135.0 313.7,135.0 313.7,156.0" fill="none" stroke="#94A3B8" stroke-width="0.5" marker-end="url(#ah)"/>
  <path d="M195.8,114.0 C195.8,135.0 418.1,135.0 418.1,156.0" fill="none" stroke="#94A3B8" stroke-width="0.5" marker-end="url(#ah)"/>
  <path d="M157.0,112.0 C147.4,126.0 134.7,126.0 125.1,114.0" fill="none" stroke="#94A3B8" stroke-width="0.5" marker-end="url(#ah)"/>
  <g filter="url(#shadow)">
    <rect x="30.0" y="32.0" width="111.2" height="14" rx="7" fill="#fff" stroke="#E2E5EA" stroke-width="0.5"/>
    <text x="85.6" y="40.8" text-anchor="middle" font-size="4.8" font-weight="600" fill="#1E293B">Timelocked Multisig</text>
  </g>
  <g filter="url(#shadow)">
    <rect x="163.2" y="32.0" width="110.0" height="14" rx="7" fill="#fff" stroke="#E2E5EA" stroke-width="0.5"/>
    <text x="218.2" y="40.8" text-anchor="middle" font-size="4.8" font-weight="600" fill="#1E293B">User</text>
  </g>
  <g filter="url(#shadow)">
    <rect x="42.7" y="94.0" width="82.4" height="20" rx="3" fill="#fff" stroke="#E2E5EA" stroke-width="0.5"/>
    <rect x="45.7" y="97.0" width="1.4" height="14" rx="0.6" fill="#3B82F6"/>
    <text x="83.9" y="103.5" text-anchor="middle" font-size="4.8" font-weight="600" fill="#1E293B">OVRFLOFactory</text>
    <text x="83.9" y="108.5" text-anchor="middle" font-size="3.5" fill="#64748B">Admin hub</text>
  </g>
  <g filter="url(#shadow)">
    <rect x="256.6" y="94.0" width="60.0" height="20" rx="3" fill="#fff" stroke="#E2E5EA" stroke-width="0.5"/>
    <rect x="259.6" y="97.0" width="1.4" height="14" rx="0.6" fill="#3B82F6"/>
    <text x="286.6" y="103.5" text-anchor="middle" font-size="4.8" font-weight="600" fill="#1E293B">OVRFLO</text>
    <text x="286.6" y="108.5" text-anchor="middle" font-size="3.5" fill="#64748B">Core vault</text>
  </g>
  <g filter="url(#shadow)">
    <rect x="157.0" y="94.0" width="77.6" height="20" rx="3" fill="#fff" stroke="#E2E5EA" stroke-width="0.5"/>
    <rect x="160.0" y="97.0" width="1.4" height="14" rx="0.6" fill="#3B82F6"/>
    <text x="195.8" y="103.5" text-anchor="middle" font-size="4.8" font-weight="600" fill="#1E293B">OVRFLOBook</text>
    <text x="195.8" y="108.5" text-anchor="middle" font-size="3.5" fill="#64748B">Secondary market</text>
  </g>
  <g filter="url(#shadow)">
    <rect x="73.3" y="156.0" width="72.8" height="20" rx="3" fill="#fff" stroke="#E2E5EA" stroke-width="0.5"/>
    <rect x="76.3" y="159.0" width="1.4" height="14" rx="0.6" fill="#3B82F6"/>
    <text x="109.7" y="165.5" text-anchor="middle" font-size="4.8" font-weight="600" fill="#1E293B">OVRFLOToken</text>
    <text x="109.7" y="170.5" text-anchor="middle" font-size="3.5" fill="#64748B">Wrapper ERC20</text>
  </g>
  <g filter="url(#shadow)">
    <rect x="272.5" y="156.0" width="82.4" height="20" rx="3" fill="#fff" stroke="#E2E5EA" stroke-width="0.5"/>
    <rect x="275.5" y="159.0" width="1.4" height="14" rx="0.6" fill="#3B82F6"/>
    <text x="313.7" y="165.5" text-anchor="middle" font-size="4.8" font-weight="600" fill="#1E293B">StreamPricing</text>
    <text x="313.7" y="170.5" text-anchor="middle" font-size="3.5" fill="#64748B">Pricing library</text>
  </g>
  <g filter="url(#shadow)">
    <rect x="168.1" y="156.0" width="82.4" height="20" rx="3" fill="#fff" stroke="#E2E5EA" stroke-width="0.5"/>
    <rect x="171.1" y="159.0" width="1.4" height="14" rx="0.6" fill="#F59E0B"/>
    <text x="209.3" y="165.5" text-anchor="middle" font-size="4.8" font-weight="600" fill="#1E293B">Pendle Oracle</text>
    <text x="209.3" y="170.5" text-anchor="middle" font-size="3.5" fill="#64748B">TWAP rate</text>
  </g>
  <g filter="url(#shadow)">
    <rect x="376.9" y="156.0" width="82.4" height="20" rx="3" fill="#fff" stroke="#E2E5EA" stroke-width="0.5"/>
    <rect x="379.9" y="159.0" width="1.4" height="14" rx="0.6" fill="#F59E0B"/>
    <text x="418.1" y="165.5" text-anchor="middle" font-size="4.8" font-weight="600" fill="#1E293B">Sablier V2 LL</text>
    <text x="418.1" y="170.5" text-anchor="middle" font-size="3.5" fill="#64748B">Streaming</text>
  </g>
  <rect x="78.0" y="65.0" width="13.6" height="6.0" rx="1" fill="#F8F9FB"/>
  <text x="84.8" y="70.0" font-size="4" fill="#1E293B" font-weight="500" text-anchor="middle">owns</text>
  <rect x="133.9" y="65.0" width="13.6" height="6.0" rx="1" fill="#F8F9FB"/>
  <text x="140.7" y="70.0" font-size="4" fill="#1E293B" font-weight="500" text-anchor="middle">owns</text>
  <rect x="234.8" y="65.0" width="35.2" height="6.0" rx="1" fill="#F8F9FB"/>
  <text x="252.4" y="70.0" font-size="4" fill="#1E293B" font-weight="500" text-anchor="middle">deposit/claim</text>
  <rect x="194.2" y="65.0" width="25.6" height="6.0" rx="1" fill="#F8F9FB"/>
  <text x="207.0" y="70.0" font-size="4" fill="#1E293B" font-weight="500" text-anchor="middle">post/fill</text>
  <rect x="173.3" y="129.0" width="35.2" height="6.0" rx="1" fill="#EDEEF2"/>
  <text x="190.9" y="134.0" font-size="4" fill="#1E293B" font-weight="500" text-anchor="middle">deploys+admin</text>
  <rect x="86.4" y="130.0" width="20.8" height="6.0" rx="1" fill="#EDEEF2"/>
  <text x="96.8" y="135.0" font-size="4" fill="#1E293B" font-weight="500" text-anchor="middle">deploys</text>
  <rect x="129.0" y="130.0" width="35.2" height="6.0" rx="1" fill="#EDEEF2"/>
  <text x="146.6" y="135.0" font-size="4" fill="#1E293B" font-weight="500" text-anchor="middle">prepareOracle</text>
  <rect x="185.3" y="122.0" width="25.6" height="6.0" rx="1" fill="#EDEEF2"/>
  <text x="198.1" y="127.0" font-size="4" fill="#1E293B" font-weight="500" text-anchor="middle">mint/burn</text>
  <rect x="230.3" y="130.0" width="35.2" height="6.0" rx="1" fill="#EDEEF2"/>
  <text x="247.9" y="135.0" font-size="4" fill="#1E293B" font-weight="500" text-anchor="middle">getPtToSyRate</text>
  <rect x="335.9" y="130.0" width="32.8" height="6.0" rx="1" fill="#EDEEF2"/>
  <text x="352.3" y="135.0" font-size="4" fill="#1E293B" font-weight="500" text-anchor="middle">createStream</text>
  <rect x="232.3" y="122.0" width="44.8" height="6.0" rx="1" fill="#EDEEF2"/>
  <text x="254.7" y="127.0" font-size="4" fill="#1E293B" font-weight="500" text-anchor="middle">price/eligibility</text>
  <rect x="286.9" y="130.0" width="40.0" height="6.0" rx="1" fill="#EDEEF2"/>
  <text x="306.9" y="135.0" font-size="4" fill="#1E293B" font-weight="500" text-anchor="middle">escrow/withdraw</text>
  <rect x="121.1" y="121.0" width="40.0" height="6.0" rx="1" fill="#EDEEF2"/>
  <text x="141.1" y="126.0" font-size="4" fill="#1E293B" font-weight="500" text-anchor="middle">registry lookup</text>
</svg>