<svg xmlns="http://www.w3.org/2000/svg" width="1389" height="490" viewBox="0 0 556 196" font-family="Arial, sans-serif">
  <defs>
    <marker id="ah" viewBox="0 0 8 6" refX="8" refY="3"
      markerWidth="4" markerHeight="3" orient="auto">
      <path d="M0.5,0.5 L7,3 L0.5,5.5" fill="none" stroke="#94A3B8"
        stroke-width="1.2" stroke-linejoin="round" stroke-linecap="round"/>
    </marker>
    <filter id="shadow" x="-6%" y="-8%" width="112%" height="128%">
      <feDropShadow dx="0" dy="0.5" stdDeviation="0.8"
        flood-color="#000" flood-opacity="0.05"/>
    </filter>
  </defs>
  <rect width="556" height="196" fill="#F8F9FB" rx="3"/>
  <text x="278" y="11" text-anchor="middle" font-size="6" font-weight="700" fill="#1E293B">OVRFLO Architecture</text>
  <rect x="203" y="16" width="150" height="10" rx="3" fill="#fff" stroke="#E2E5EA" stroke-width="0.4"/>
  <rect x="208" y="18.5" width="5" height="5" rx="2.5" fill="#fff" stroke="#E2E5EA" stroke-width="0.4"/>
  <text x="216" y="22.5" font-size="3.5" fill="#1E293B">Actor</text>
  <rect x="248" y="18.5" width="5" height="5" rx="1.5" fill="#fff" stroke="#E2E5EA" stroke-width="0.4"/>
  <rect x="249" y="19.5" width="0.8" height="3" rx="0.4" fill="#3B82F6"/>
  <text x="256" y="22.5" font-size="3.5" fill="#1E293B">Protocol</text>
  <rect x="296" y="18.5" width="5" height="5" rx="1.5" fill="#fff" stroke="#E2E5EA" stroke-width="0.4"/>
  <rect x="297" y="19.5" width="0.8" height="3" rx="0.4" fill="#F59E0B"/>
  <text x="304" y="22.5" font-size="3.5" fill="#1E293B">External</text>
  <rect x="122.1" y="84.0" width="413.6" height="40.0" rx="5" fill="#EDEEF2"/>
  <text x="532.7" y="89.0" text-anchor="end" font-size="3.5" fill="#94A3B8" font-weight="500">OVRFLO Protocol</text>
  <path d="M313.7,46.0 C313.7,70.0 381.3,70.0 381.3,94.0" fill="none" stroke="#94A3B8" stroke-width="0.5" marker-end="url(#ah)"/>
  <path d="M152.7,46.0 C152.7,70.0 162.1,70.0 162.1,94.0" fill="none" stroke="#94A3B8" stroke-width="0.5" marker-end="url(#ah)"/>
  <path d="M152.7,46.0 C152.7,70.0 261.9,70.0 261.9,94.0" fill="none" stroke="#94A3B8" stroke-width="0.5" marker-end="url(#ah)"/>
  <path d="M331.7,112.0 C289.9,126.0 234.0,126.0 192.1,114.0" fill="none" stroke="#94A3B8" stroke-width="0.5" marker-end="url(#ah)"/>
  <path d="M331.7,112.0 C325.1,130.0 316.3,130.0 309.7,114.0" fill="none" stroke="#94A3B8" stroke-width="0.5" marker-end="url(#ah)"/>
  <path d="M192.1,112.0 C270.4,134.0 374.7,134.0 452.9,114.0" fill="none" stroke="#94A3B8" stroke-width="0.5" marker-end="url(#ah)"/>
  <path d="M309.7,112.0 C352.7,126.0 410.0,126.0 452.9,114.0" fill="none" stroke="#94A3B8" stroke-width="0.5" marker-end="url(#ah)"/>
  <path d="M162.1,114.0 C162.1,135.0 73.6,135.0 73.6,156.0" fill="none" stroke="#94A3B8" stroke-width="0.5" marker-end="url(#ah)"/>
  <path d="M162.1,114.0 C162.1,135.0 180.4,135.0 180.4,156.0" fill="none" stroke="#94A3B8" stroke-width="0.5" marker-end="url(#ah)"/>
  <path d="M162.1,114.0 C162.1,135.0 284.8,135.0 284.8,156.0" fill="none" stroke="#94A3B8" stroke-width="0.5" marker-end="url(#ah)"/>
  <path d="M162.1,114.0 C162.1,135.0 396.4,135.0 396.4,156.0" fill="none" stroke="#94A3B8" stroke-width="0.5" marker-end="url(#ah)"/>
  <path d="M261.9,114.0 C261.9,135.0 284.8,135.0 284.8,156.0" fill="none" stroke="#94A3B8" stroke-width="0.5" marker-end="url(#ah)"/>
  <path d="M261.9,114.0 C261.9,135.0 396.4,135.0 396.4,156.0" fill="none" stroke="#94A3B8" stroke-width="0.5" marker-end="url(#ah)"/>
  <g filter="url(#shadow)">
    <rect x="85.1" y="32.0" width="135.2" height="14" rx="7" fill="#fff" stroke="#E2E5EA" stroke-width="0.5"/>
    <text x="152.7" y="40.8" text-anchor="middle" font-size="4.8" font-weight="600" fill="#1E293B">Users</text>
  </g>
  <g filter="url(#shadow)">
    <rect x="258.1" y="32.0" width="111.2" height="14" rx="7" fill="#fff" stroke="#E2E5EA" stroke-width="0.5"/>
    <text x="313.7" y="40.8" text-anchor="middle" font-size="4.8" font-weight="600" fill="#1E293B">Timelocked Multisig</text>
  </g>
  <g filter="url(#shadow)">
    <rect x="331.7" y="94.0" width="99.2" height="20" rx="3" fill="#fff" stroke="#E2E5EA" stroke-width="0.5"/>
    <rect x="334.7" y="97.0" width="1.4" height="14" rx="0.6" fill="#3B82F6"/>
    <text x="381.3" y="103.5" text-anchor="middle" font-size="4.8" font-weight="600" fill="#1E293B">OVRFLOFactory</text>
    <text x="381.3" y="108.5" text-anchor="middle" font-size="3.5" fill="#64748B">Deployment / Admin hub</text>
  </g>
  <g filter="url(#shadow)">
    <rect x="132.1" y="94.0" width="60.0" height="20" rx="3" fill="#fff" stroke="#E2E5EA" stroke-width="0.5"/>
    <rect x="135.1" y="97.0" width="1.4" height="14" rx="0.6" fill="#3B82F6"/>
    <text x="162.1" y="103.5" text-anchor="middle" font-size="4.8" font-weight="600" fill="#1E293B">OVRFLO</text>
    <text x="162.1" y="108.5" text-anchor="middle" font-size="3.5" fill="#64748B">PT vault</text>
  </g>
  <g filter="url(#shadow)">
    <rect x="452.9" y="94.0" width="72.8" height="20" rx="3" fill="#fff" stroke="#E2E5EA" stroke-width="0.5"/>
    <rect x="455.9" y="97.0" width="1.4" height="14" rx="0.6" fill="#3B82F6"/>
    <text x="489.3" y="103.5" text-anchor="middle" font-size="4.8" font-weight="600" fill="#1E293B">OVRFLOToken</text>
    <text x="489.3" y="108.5" text-anchor="middle" font-size="3.5" fill="#64748B">Fungible claim</text>
  </g>
  <g filter="url(#shadow)">
    <rect x="214.1" y="94.0" width="95.6" height="20" rx="3" fill="#fff" stroke="#E2E5EA" stroke-width="0.5"/>
    <rect x="217.1" y="97.0" width="1.4" height="14" rx="0.6" fill="#3B82F6"/>
    <text x="261.9" y="103.5" text-anchor="middle" font-size="4.8" font-weight="600" fill="#1E293B">OVRFLOLending</text>
    <text x="261.9" y="108.5" text-anchor="middle" font-size="3.5" fill="#64748B">Stream market / Loans</text>
  </g>
  <g filter="url(#shadow)">
    <rect x="30.0" y="156.0" width="87.2" height="20" rx="3" fill="#fff" stroke="#E2E5EA" stroke-width="0.5"/>
    <rect x="33.0" y="159.0" width="1.4" height="14" rx="0.6" fill="#F59E0B"/>
    <text x="73.6" y="165.5" text-anchor="middle" font-size="4.8" font-weight="600" fill="#1E293B">Pendle Markets</text>
    <text x="73.6" y="170.5" text-anchor="middle" font-size="3.5" fill="#64748B">PT / SY metadata</text>
  </g>
  <g filter="url(#shadow)">
    <rect x="139.2" y="156.0" width="82.4" height="20" rx="3" fill="#fff" stroke="#E2E5EA" stroke-width="0.5"/>
    <rect x="142.2" y="159.0" width="1.4" height="14" rx="0.6" fill="#F59E0B"/>
    <text x="180.4" y="165.5" text-anchor="middle" font-size="4.8" font-weight="600" fill="#1E293B">Pendle Oracle</text>
    <text x="180.4" y="170.5" text-anchor="middle" font-size="3.5" fill="#64748B">PT-to-SY TWAP</text>
  </g>
  <g filter="url(#shadow)">
    <rect x="243.6" y="156.0" width="82.4" height="20" rx="3" fill="#fff" stroke="#E2E5EA" stroke-width="0.5"/>
    <rect x="246.6" y="159.0" width="1.4" height="14" rx="0.6" fill="#F59E0B"/>
    <text x="284.8" y="165.5" text-anchor="middle" font-size="4.8" font-weight="600" fill="#1E293B">Sablier V2 LL</text>
    <text x="284.8" y="170.5" text-anchor="middle" font-size="3.5" fill="#64748B">Streams / NFTs</text>
  </g>
  <g filter="url(#shadow)">
    <rect x="348.0" y="156.0" width="96.8" height="20" rx="3" fill="#fff" stroke="#E2E5EA" stroke-width="0.5"/>
    <rect x="351.0" y="159.0" width="1.4" height="14" rx="0.6" fill="#F59E0B"/>
    <text x="396.4" y="165.5" text-anchor="middle" font-size="4.8" font-weight="600" fill="#1E293B">Underlying ERC20</text>
    <text x="396.4" y="170.5" text-anchor="middle" font-size="3.5" fill="#64748B">wstETH reserve</text>
  </g>
  <rect x="326.3" y="65.0" width="42.4" height="6.0" rx="1" fill="#F8F9FB"/>
  <text x="347.5" y="70.0" font-size="4" fill="#1E293B" font-weight="500" text-anchor="middle">timelocked admin</text>
  <rect x="139.8" y="65.0" width="35.2" height="6.0" rx="1" fill="#F8F9FB"/>
  <text x="157.4" y="70.0" font-size="4" fill="#1E293B" font-weight="500" text-anchor="middle">deposit exits</text>
  <rect x="190.9" y="65.0" width="32.8" height="6.0" rx="1" fill="#F8F9FB"/>
  <text x="207.3" y="70.0" font-size="4" fill="#1E293B" font-weight="500" text-anchor="middle">trade borrow</text>
  <rect x="240.7" y="125.0" width="42.4" height="6.0" rx="1" fill="#F8F9FB"/>
  <text x="261.9" y="130.0" font-size="4" fill="#1E293B" font-weight="500" text-anchor="middle">deploy configure</text>
  <rect x="303.1" y="129.0" width="35.2" height="6.0" rx="1" fill="#F8F9FB"/>
  <text x="320.7" y="134.0" font-size="4" fill="#1E293B" font-weight="500" text-anchor="middle">deploy govern</text>
  <rect x="309.7" y="137.0" width="25.6" height="6.0" rx="1" fill="#F8F9FB"/>
  <text x="322.5" y="142.0" font-size="4" fill="#1E293B" font-weight="500" text-anchor="middle">mint burn</text>
  <rect x="362.5" y="125.0" width="37.6" height="6.0" rx="1" fill="#F8F9FB"/>
  <text x="381.3" y="130.0" font-size="4" fill="#1E293B" font-weight="500" text-anchor="middle">repay proceeds</text>
  <rect x="100.3" y="130.0" width="35.2" height="6.0" rx="1" fill="#F8F9FB"/>
  <text x="117.9" y="135.0" font-size="4" fill="#1E293B" font-weight="500" text-anchor="middle">hold claim PT</text>
  <rect x="158.5" y="130.0" width="25.6" height="6.0" rx="1" fill="#F8F9FB"/>
  <text x="171.3" y="135.0" font-size="4" fill="#1E293B" font-weight="500" text-anchor="middle">read TWAP</text>
  <rect x="204.7" y="134.0" width="37.6" height="6.0" rx="1" fill="#F8F9FB"/>
  <text x="223.5" y="139.0" font-size="4" fill="#1E293B" font-weight="500" text-anchor="middle">create streams</text>
  <rect x="266.5" y="134.0" width="25.6" height="6.0" rx="1" fill="#F8F9FB"/>
  <text x="279.3" y="139.0" font-size="4" fill="#1E293B" font-weight="500" text-anchor="middle">wrap fees</text>
  <rect x="254.6" y="142.0" width="37.6" height="6.0" rx="1" fill="#F8F9FB"/>
  <text x="273.4" y="147.0" font-size="4" fill="#1E293B" font-weight="500" text-anchor="middle">escrow harvest</text>
  <rect x="308.0" y="122.0" width="42.4" height="6.0" rx="1" fill="#F8F9FB"/>
  <text x="329.2" y="127.0" font-size="4" fill="#1E293B" font-weight="500" text-anchor="middle">settle principal</text>
</svg>