<svg xmlns="http://www.w3.org/2000/svg" width="1266" height="800" viewBox="0 0 507 320" font-family="Arial, sans-serif">
  <defs>
    <marker id="ah" viewBox="0 0 8 6" refX="8" refY="3"
      markerWidth="4" markerHeight="3" orient="auto">
      <path d="M0.5,0.5 L7,3 L0.5,5.5" fill="none" stroke="#94A3B8"
        stroke-width="1.2" stroke-linejoin="round" stroke-linecap="round"/>
    </marker>
    <filter id="shadow" x="-6%" y="-8%" width="112%" height="128%">
      <feDropShadow dx="0" dy="0.5" stdDeviation="0.8"
        flood-color="#000" flood-opacity="0.05"/>
    </filter>
  </defs>
  <rect width="507" height="320" fill="#F8F9FB" rx="3"/>
  <text x="253" y="11" text-anchor="middle" font-size="6" font-weight="700" fill="#1E293B">OVRFLO Architecture</text>
  <rect x="178" y="16" width="150" height="10" rx="3" fill="#fff" stroke="#E2E5EA" stroke-width="0.4"/>
  <rect x="183" y="18.5" width="5" height="5" rx="2.5" fill="#fff" stroke="#E2E5EA" stroke-width="0.4"/>
  <text x="191" y="22.5" font-size="3.5" fill="#1E293B">Actor</text>
  <rect x="223" y="18.5" width="5" height="5" rx="1.5" fill="#fff" stroke="#E2E5EA" stroke-width="0.4"/>
  <rect x="224" y="19.5" width="0.8" height="3" rx="0.4" fill="#3B82F6"/>
  <text x="231" y="22.5" font-size="3.5" fill="#1E293B">Protocol</text>
  <rect x="271" y="18.5" width="5" height="5" rx="1.5" fill="#fff" stroke="#E2E5EA" stroke-width="0.4"/>
  <rect x="272" y="19.5" width="0.8" height="3" rx="0.4" fill="#F59E0B"/>
  <text x="279" y="22.5" font-size="3.5" fill="#1E293B">External</text>
  <rect x="20.0" y="22.0" width="466.7" height="102.0" rx="5" fill="#EDEEF2"/>
  <text x="483.7" y="27.0" text-anchor="end" font-size="3.5" fill="#94A3B8" font-weight="500">Governance</text>
  <rect x="20.0" y="146.0" width="466.7" height="102.0" rx="5" fill="#EDEEF2"/>
  <text x="483.7" y="151.0" text-anchor="end" font-size="3.5" fill="#94A3B8" font-weight="500">Core OVRFLO</text>
  <rect x="20.0" y="146.0" width="466.7" height="102.0" rx="5" fill="#EDEEF2"/>
  <text x="483.7" y="151.0" text-anchor="end" font-size="3.5" fill="#94A3B8" font-weight="500">Book Layer</text>
  <rect x="20.0" y="270.0" width="466.7" height="40.0" rx="5" fill="#EDEEF2"/>
  <text x="483.7" y="275.0" text-anchor="end" font-size="3.5" fill="#94A3B8" font-weight="500">External Dependencies</text>
  <path d="M201.2,46.0 C201.2,70.0 187.8,70.0 187.8,94.0" fill="none" stroke="#94A3B8" stroke-width="0.5" marker-end="url(#ah)"/>
  <path d="M187.8,114.0 C187.8,135.0 176.3,135.0 176.3,156.0" fill="none" stroke="#94A3B8" stroke-width="0.5" marker-end="url(#ah)"/>
  <path d="M187.8,114.0 Q218.3,166.0 180.1,156.0" fill="none" stroke="#94A3B8" stroke-width="0.5" marker-end="url(#ah)"/>
  <path d="M180.1,156.0 Q138.3,166.0 172.4,218.0" fill="none" stroke="#94A3B8" stroke-width="0.5" marker-end="url(#ah)"/>
  <path d="M187.8,114.0 C187.8,135.0 257.9,135.0 257.9,156.0" fill="none" stroke="#94A3B8" stroke-width="0.5" marker-end="url(#ah)"/>
  <path d="M257.9,156.0 C257.9,187.0 335.9,187.0 335.9,218.0" fill="none" stroke="#94A3B8" stroke-width="0.5" marker-end="url(#ah)"/>
  <path d="M335.9,218.0 C335.9,249.0 413.9,249.0 413.9,280.0" fill="none" stroke="#94A3B8" stroke-width="0.5" marker-end="url(#ah)"/>
  <path d="M82.4,46.0 C82.4,70.0 129.3,70.0 129.3,94.0" fill="none" stroke="#94A3B8" stroke-width="0.5" marker-end="url(#ah)"/>
  <path d="M129.3,94.0 Q134.6,104.0 176.3,156.0" fill="none" stroke="#94A3B8" stroke-width="0.5" marker-end="url(#ah)"/>
  <path d="M82.4,46.0 C82.4,70.0 83.9,70.0 83.9,94.0" fill="none" stroke="#94A3B8" stroke-width="0.5" marker-end="url(#ah)"/>
  <path d="M83.9,94.0 C83.9,125.0 85.5,125.0 85.5,156.0" fill="none" stroke="#94A3B8" stroke-width="0.5" marker-end="url(#ah)"/>
  <path d="M176.3,176.0 C176.3,197.0 172.4,197.0 172.4,218.0" fill="none" stroke="#94A3B8" stroke-width="0.5" marker-end="url(#ah)"/>
  <path d="M176.3,176.0 C176.3,197.0 295.1,197.0 295.1,218.0" fill="none" stroke="#94A3B8" stroke-width="0.5" marker-end="url(#ah)"/>
  <path d="M295.1,218.0 C295.1,249.0 413.9,249.0 413.9,280.0" fill="none" stroke="#94A3B8" stroke-width="0.5" marker-end="url(#ah)"/>
  <path d="M176.3,176.0 Q124.0,228.0 145.1,218.0" fill="none" stroke="#94A3B8" stroke-width="0.5" marker-end="url(#ah)"/>
  <path d="M145.1,218.0 Q128.0,228.0 113.9,280.0" fill="none" stroke="#94A3B8" stroke-width="0.5" marker-end="url(#ah)"/>
  <path d="M176.3,176.0 C176.3,197.0 221.3,197.0 221.3,218.0" fill="none" stroke="#94A3B8" stroke-width="0.5" marker-end="url(#ah)"/>
  <path d="M221.3,218.0 C221.3,249.0 266.3,249.0 266.3,280.0" fill="none" stroke="#94A3B8" stroke-width="0.5" marker-end="url(#ah)"/>
  <path d="M85.5,176.0 C85.5,197.0 71.2,197.0 71.2,218.0" fill="none" stroke="#94A3B8" stroke-width="0.5" marker-end="url(#ah)"/>
  <path d="M85.5,176.0 Q122.4,228.0 99.7,218.0" fill="none" stroke="#94A3B8" stroke-width="0.5" marker-end="url(#ah)"/>
  <path d="M99.7,218.0 Q124.4,228.0 113.9,280.0" fill="none" stroke="#94A3B8" stroke-width="0.5" marker-end="url(#ah)"/>
  <path d="M85.5,176.0 Q128.0,228.0 175.9,218.0" fill="none" stroke="#94A3B8" stroke-width="0.5" marker-end="url(#ah)"/>
  <path d="M175.9,218.0 Q218.8,228.0 266.3,280.0" fill="none" stroke="#94A3B8" stroke-width="0.5" marker-end="url(#ah)"/>
  <g filter="url(#shadow)">
    <rect x="41.2" y="32.0" width="82.4" height="14" rx="7" fill="#fff" stroke="#E2E5EA" stroke-width="0.5"/>
    <text x="82.4" y="40.8" text-anchor="middle" font-size="4.8" font-weight="600" fill="#1E293B">User / Trader</text>
  </g>
  <g filter="url(#shadow)">
    <rect x="145.6" y="32.0" width="111.2" height="14" rx="7" fill="#fff" stroke="#E2E5EA" stroke-width="0.5"/>
    <text x="201.2" y="40.8" text-anchor="middle" font-size="4.8" font-weight="600" fill="#1E293B">Timelocked Multisig</text>
  </g>
  <g filter="url(#shadow)">
    <rect x="146.6" y="94.0" width="82.4" height="20" rx="3" fill="#fff" stroke="#E2E5EA" stroke-width="0.5"/>
    <rect x="149.6" y="97.0" width="1.4" height="14" rx="0.6" fill="#3B82F6"/>
    <text x="187.8" y="103.5" text-anchor="middle" font-size="4.8" font-weight="600" fill="#1E293B">OVRFLOFactory</text>
    <text x="187.8" y="108.5" text-anchor="middle" font-size="3.5" fill="#64748B">Coordinator</text>
  </g>
  <g filter="url(#shadow)">
    <rect x="146.3" y="156.0" width="60.0" height="20" rx="3" fill="#fff" stroke="#E2E5EA" stroke-width="0.5"/>
    <rect x="149.3" y="159.0" width="1.4" height="14" rx="0.6" fill="#3B82F6"/>
    <text x="176.3" y="165.5" text-anchor="middle" font-size="4.8" font-weight="600" fill="#1E293B">OVRFLO</text>
    <text x="176.3" y="170.5" text-anchor="middle" font-size="3.5" fill="#64748B">Core Vault</text>
  </g>
  <g filter="url(#shadow)">
    <rect x="46.7" y="156.0" width="77.6" height="20" rx="3" fill="#fff" stroke="#E2E5EA" stroke-width="0.5"/>
    <rect x="49.7" y="159.0" width="1.4" height="14" rx="0.6" fill="#3B82F6"/>
    <text x="85.5" y="165.5" text-anchor="middle" font-size="4.8" font-weight="600" fill="#1E293B">OVRFLOBook</text>
    <text x="85.5" y="170.5" text-anchor="middle" font-size="3.5" fill="#64748B">Secondary Market</text>
  </g>
  <g filter="url(#shadow)">
    <rect x="136.0" y="218.0" width="72.8" height="20" rx="3" fill="#fff" stroke="#E2E5EA" stroke-width="0.5"/>
    <rect x="139.0" y="221.0" width="1.4" height="14" rx="0.6" fill="#3B82F6"/>
    <text x="172.4" y="227.5" text-anchor="middle" font-size="4.8" font-weight="600" fill="#1E293B">OVRFLOToken</text>
    <text x="172.4" y="232.5" text-anchor="middle" font-size="3.5" fill="#64748B">ERC20 Wrapper</text>
  </g>
  <g filter="url(#shadow)">
    <rect x="30.0" y="218.0" width="82.4" height="20" rx="3" fill="#fff" stroke="#E2E5EA" stroke-width="0.5"/>
    <rect x="33.0" y="221.0" width="1.4" height="14" rx="0.6" fill="#3B82F6"/>
    <text x="71.2" y="227.5" text-anchor="middle" font-size="4.8" font-weight="600" fill="#1E293B">StreamPricing</text>
    <text x="71.2" y="232.5" text-anchor="middle" font-size="3.5" fill="#64748B">Pricing Library</text>
  </g>
  <g filter="url(#shadow)">
    <rect x="351.1" y="280.0" width="125.6" height="20" rx="3" fill="#fff" stroke="#E2E5EA" stroke-width="0.5"/>
    <rect x="354.1" y="283.0" width="1.4" height="14" rx="0.6" fill="#F59E0B"/>
    <text x="413.9" y="289.5" text-anchor="middle" font-size="4.8" font-weight="600" fill="#1E293B">Pendle Market + Oracle</text>
    <text x="413.9" y="294.5" text-anchor="middle" font-size="3.5" fill="#64748B">External</text>
  </g>
  <g filter="url(#shadow)">
    <rect x="46.3" y="280.0" width="135.2" height="20" rx="3" fill="#fff" stroke="#E2E5EA" stroke-width="0.5"/>
    <rect x="49.3" y="283.0" width="1.4" height="14" rx="0.6" fill="#F59E0B"/>
    <text x="113.9" y="289.5" text-anchor="middle" font-size="4.8" font-weight="600" fill="#1E293B">Sablier V2 Lockup Linear</text>
    <text x="113.9" y="294.5" text-anchor="middle" font-size="3.5" fill="#64748B">External</text>
  </g>
  <g filter="url(#shadow)">
    <rect x="203.5" y="280.0" width="125.6" height="20" rx="3" fill="#fff" stroke="#E2E5EA" stroke-width="0.5"/>
    <rect x="206.5" y="283.0" width="1.4" height="14" rx="0.6" fill="#F59E0B"/>
    <text x="266.3" y="289.5" text-anchor="middle" font-size="4.8" font-weight="600" fill="#1E293B">PT / Underlying Tokens</text>
    <text x="266.3" y="294.5" text-anchor="middle" font-size="3.5" fill="#64748B">External</text>
  </g>
  <rect x="178.1" y="65.0" width="32.8" height="6.0" rx="1" fill="#EDEEF2"/>
  <text x="194.5" y="70.0" font-size="4" fill="#1E293B" font-weight="500" text-anchor="middle">govern admin</text>
  <rect x="163.2" y="130.0" width="37.6" height="6.0" rx="1" fill="#F8F9FB"/>
  <text x="182.0" y="135.0" font-size="4" fill="#1E293B" font-weight="500" text-anchor="middle">approve series</text>
  <rect x="127.1" y="177.0" width="32.8" height="6.0" rx="1" fill="#EDEEF2"/>
  <text x="143.5" y="182.0" font-size="4" fill="#1E293B" font-weight="500" text-anchor="middle">deploy token</text>
  <rect x="359.7" y="244.0" width="30.4" height="6.0" rx="1" fill="#F8F9FB"/>
  <text x="374.9" y="249.0" font-size="4" fill="#1E293B" font-weight="500" text-anchor="middle">prep oracle</text>
  <rect x="135.5" y="120.6" width="32.8" height="6.0" rx="1" fill="#F8F9FB"/>
  <text x="151.9" y="125.6" font-size="4" fill="#1E293B" font-weight="500" text-anchor="middle">wrap deposit</text>
  <rect x="68.3" y="120.0" width="32.8" height="6.0" rx="1" fill="#F8F9FB"/>
  <text x="84.7" y="125.0" font-size="4" fill="#1E293B" font-weight="500" text-anchor="middle">trade stream</text>
  <rect x="161.5" y="192.0" width="25.6" height="6.0" rx="1" fill="#EDEEF2"/>
  <text x="174.3" y="197.0" font-size="4" fill="#1E293B" font-weight="500" text-anchor="middle">mint burn</text>
  <rect x="341.7" y="236.0" width="25.6" height="6.0" rx="1" fill="#EDEEF2"/>
  <text x="354.5" y="241.0" font-size="4" fill="#1E293B" font-weight="500" text-anchor="middle">read twap</text>
  <rect x="108.3" y="239.4" width="30.4" height="6.0" rx="1" fill="#EDEEF2"/>
  <text x="123.5" y="244.4" font-size="4" fill="#1E293B" font-weight="500" text-anchor="middle">open stream</text>
  <rect x="229.8" y="244.0" width="28.0" height="6.0" rx="1" fill="#F8F9FB"/>
  <text x="243.8" y="249.0" font-size="4" fill="#1E293B" font-weight="500" text-anchor="middle">custody pt</text>
  <rect x="61.9" y="192.0" width="32.8" height="6.0" rx="1" fill="#EDEEF2"/>
  <text x="78.3" y="197.0" font-size="4" fill="#1E293B" font-weight="500" text-anchor="middle">price checks</text>
  <rect x="110.2" y="247.9" width="23.2" height="6.0" rx="1" fill="#F8F9FB"/>
  <text x="121.8" y="252.9" font-size="4" fill="#1E293B" font-weight="500" text-anchor="middle">move nft</text>
  <rect x="212.5" y="232.7" width="30.4" height="6.0" rx="1" fill="#EDEEF2"/>
  <text x="227.7" y="237.7" font-size="4" fill="#1E293B" font-weight="500" text-anchor="middle">settle cash</text>
</svg>