<svg xmlns="http://www.w3.org/2000/svg" width="1300" height="785" viewBox="0 0 520 314" font-family="Arial, sans-serif">
  <defs>
    <marker id="ah" viewBox="0 0 8 6" refX="8" refY="3"
      markerWidth="4" markerHeight="3" orient="auto">
      <path d="M0.5,0.5 L7,3 L0.5,5.5" fill="none" stroke="#94A3B8"
        stroke-width="1.2" stroke-linejoin="round" stroke-linecap="round"/>
    </marker>
    <filter id="shadow" x="-6%" y="-8%" width="112%" height="128%">
      <feDropShadow dx="0" dy="0.5" stdDeviation="0.8"
        flood-color="#000" flood-opacity="0.05"/>
    </filter>
  </defs>
  <rect width="520" height="314" fill="#F8F9FB" rx="3"/>
  <text x="260" y="11" text-anchor="middle" font-size="6" font-weight="700" fill="#1E293B">OVRFLO Architecture</text>
  <rect x="185" y="16" width="150" height="10" rx="3" fill="#fff" stroke="#E2E5EA" stroke-width="0.4"/>
  <rect x="190" y="18.5" width="5" height="5" rx="2.5" fill="#fff" stroke="#E2E5EA" stroke-width="0.4"/>
  <text x="198" y="22.5" font-size="3.5" fill="#1E293B">Actor</text>
  <rect x="230" y="18.5" width="5" height="5" rx="1.5" fill="#fff" stroke="#E2E5EA" stroke-width="0.4"/>
  <rect x="231" y="19.5" width="0.8" height="3" rx="0.4" fill="#3B82F6"/>
  <text x="238" y="22.5" font-size="3.5" fill="#1E293B">Protocol</text>
  <rect x="278" y="18.5" width="5" height="5" rx="1.5" fill="#fff" stroke="#E2E5EA" stroke-width="0.4"/>
  <rect x="279" y="19.5" width="0.8" height="3" rx="0.4" fill="#F59E0B"/>
  <text x="286" y="22.5" font-size="3.5" fill="#1E293B">External</text>
  <rect x="56.3" y="84.0" width="443.7" height="164.0" rx="5" fill="#EDEEF2"/>
  <text x="497.0" y="89.0" text-anchor="end" font-size="3.5" fill="#94A3B8" font-weight="500">OVRFLO Protocol</text>
  <path d="M114.5,46.0 C114.5,70.0 141.8,70.0 141.8,94.0" fill="none" stroke="#94A3B8" stroke-width="0.5" marker-end="url(#ah)"/>
  <path d="M141.8,114.0 C141.8,135.0 200.6,135.0 200.6,156.0" fill="none" stroke="#94A3B8" stroke-width="0.5" marker-end="url(#ah)"/>
  <path d="M141.8,114.0 C141.8,135.0 302.6,135.0 302.6,156.0" fill="none" stroke="#94A3B8" stroke-width="0.5" marker-end="url(#ah)"/>
  <path d="M141.8,114.0 C141.8,135.0 102.7,135.0 102.7,156.0" fill="none" stroke="#94A3B8" stroke-width="0.5" marker-end="url(#ah)"/>
  <path d="M161.8,174.0 C155.0,192.0 145.9,192.0 139.1,176.0" fill="none" stroke="#94A3B8" stroke-width="0.5" marker-end="url(#ah)"/>
  <path d="M200.6,176.0 C200.6,197.0 334.8,197.0 334.8,218.0" fill="none" stroke="#94A3B8" stroke-width="0.5" marker-end="url(#ah)"/>
  <path d="M200.6,176.0 C200.6,197.0 187.2,197.0 187.2,218.0" fill="none" stroke="#94A3B8" stroke-width="0.5" marker-end="url(#ah)"/>
  <path d="M302.6,176.0 C302.6,197.0 448.8,197.0 448.8,218.0" fill="none" stroke="#94A3B8" stroke-width="0.5" marker-end="url(#ah)"/>
  <path d="M302.6,176.0 C302.6,197.0 334.8,197.0 334.8,218.0" fill="none" stroke="#94A3B8" stroke-width="0.5" marker-end="url(#ah)"/>
  <path d="M261.4,174.0 C254.8,188.0 246.0,188.0 239.4,176.0" fill="none" stroke="#94A3B8" stroke-width="0.5" marker-end="url(#ah)"/>
  <path d="M448.8,218.0 C448.8,197.0 200.6,197.0 200.6,176.0" fill="none" stroke="#94A3B8" stroke-width="0.5" marker-end="url(#ah)"/>
  <path d="M97.6,280.0 Q100.4,228.0 149.1,218.0" fill="none" stroke="#94A3B8" stroke-width="0.5" marker-end="url(#ah)"/>
  <path d="M149.1,218.0 Q104.4,228.0 200.6,176.0" fill="none" stroke="#94A3B8" stroke-width="0.5" marker-end="url(#ah)"/>
  <path d="M97.6,280.0 Q102.4,228.0 200.1,218.0" fill="none" stroke="#94A3B8" stroke-width="0.5" marker-end="url(#ah)"/>
  <path d="M200.1,218.0 Q274.0,228.0 302.6,176.0" fill="none" stroke="#94A3B8" stroke-width="0.5" marker-end="url(#ah)"/>
  <path d="M97.6,280.0 C97.6,259.0 187.2,259.0 187.2,238.0" fill="none" stroke="#94A3B8" stroke-width="0.5" marker-end="url(#ah)"/>
  <g filter="url(#shadow)">
    <rect x="58.9" y="32.0" width="111.2" height="14" rx="7" fill="#fff" stroke="#E2E5EA" stroke-width="0.5"/>
    <text x="114.5" y="40.8" text-anchor="middle" font-size="4.8" font-weight="600" fill="#1E293B">Timelocked Multisig</text>
  </g>
  <g filter="url(#shadow)">
    <rect x="100.6" y="94.0" width="82.4" height="20" rx="3" fill="#fff" stroke="#E2E5EA" stroke-width="0.5"/>
    <rect x="103.6" y="97.0" width="1.4" height="14" rx="0.6" fill="#3B82F6"/>
    <text x="141.8" y="103.5" text-anchor="middle" font-size="4.8" font-weight="600" fill="#1E293B">OVRFLOFactory</text>
    <text x="141.8" y="108.5" text-anchor="middle" font-size="3.5" fill="#64748B">Admin hub</text>
  </g>
  <g filter="url(#shadow)">
    <rect x="66.3" y="156.0" width="72.8" height="20" rx="3" fill="#fff" stroke="#E2E5EA" stroke-width="0.5"/>
    <rect x="69.3" y="159.0" width="1.4" height="14" rx="0.6" fill="#3B82F6"/>
    <text x="102.7" y="165.5" text-anchor="middle" font-size="4.8" font-weight="600" fill="#1E293B">OVRFLOToken</text>
    <text x="102.7" y="170.5" text-anchor="middle" font-size="3.5" fill="#64748B">ERC20 receipt</text>
  </g>
  <g filter="url(#shadow)">
    <rect x="161.8" y="156.0" width="77.6" height="20" rx="3" fill="#fff" stroke="#E2E5EA" stroke-width="0.5"/>
    <rect x="164.8" y="159.0" width="1.4" height="14" rx="0.6" fill="#3B82F6"/>
    <text x="200.6" y="165.5" text-anchor="middle" font-size="4.8" font-weight="600" fill="#1E293B">OVRFLO Vault</text>
    <text x="200.6" y="170.5" text-anchor="middle" font-size="3.5" fill="#64748B">PT wrapper</text>
  </g>
  <g filter="url(#shadow)">
    <rect x="261.4" y="156.0" width="82.4" height="20" rx="3" fill="#fff" stroke="#E2E5EA" stroke-width="0.5"/>
    <rect x="264.4" y="159.0" width="1.4" height="14" rx="0.6" fill="#3B82F6"/>
    <text x="302.6" y="165.5" text-anchor="middle" font-size="4.8" font-weight="600" fill="#1E293B">OVRFLOLending</text>
    <text x="302.6" y="170.5" text-anchor="middle" font-size="3.5" fill="#64748B">Stream market</text>
  </g>
  <g filter="url(#shadow)">
    <rect x="407.6" y="218.0" width="82.4" height="20" rx="3" fill="#fff" stroke="#E2E5EA" stroke-width="0.5"/>
    <rect x="410.6" y="221.0" width="1.4" height="14" rx="0.6" fill="#3B82F6"/>
    <text x="448.8" y="227.5" text-anchor="middle" font-size="4.8" font-weight="600" fill="#1E293B">StreamPricing</text>
    <text x="448.8" y="232.5" text-anchor="middle" font-size="3.5" fill="#64748B">Pure math lib</text>
  </g>
  <g filter="url(#shadow)">
    <rect x="284.0" y="218.0" width="101.6" height="20" rx="3" fill="#fff" stroke="#E2E5EA" stroke-width="0.5"/>
    <rect x="287.0" y="221.0" width="1.4" height="14" rx="0.6" fill="#F59E0B"/>
    <text x="334.8" y="227.5" text-anchor="middle" font-size="4.8" font-weight="600" fill="#1E293B">Sablier V2 Lockup</text>
    <text x="334.8" y="232.5" text-anchor="middle" font-size="3.5" fill="#64748B">Stream escrow</text>
  </g>
  <g filter="url(#shadow)">
    <rect x="112.4" y="218.0" width="149.6" height="20" rx="3" fill="#fff" stroke="#E2E5EA" stroke-width="0.5"/>
    <rect x="115.4" y="221.0" width="1.4" height="14" rx="0.6" fill="#F59E0B"/>
    <text x="187.2" y="227.5" text-anchor="middle" font-size="4.8" font-weight="600" fill="#1E293B">Pendle Oracle / Market / SY</text>
    <text x="187.2" y="232.5" text-anchor="middle" font-size="3.5" fill="#64748B">PT pricing</text>
  </g>
  <g filter="url(#shadow)">
    <rect x="30.0" y="280.0" width="135.2" height="14" rx="7" fill="#fff" stroke="#E2E5EA" stroke-width="0.5"/>
    <text x="97.6" y="288.8" text-anchor="middle" font-size="4.8" font-weight="600" fill="#1E293B">User / Borrower / Lender</text>
  </g>
  <rect x="104.5" y="65.0" width="47.2" height="6.0" rx="1" fill="#F8F9FB"/>
  <text x="128.1" y="70.0" font-size="4" fill="#1E293B" font-weight="500" text-anchor="middle">Ownable2Step admin</text>
  <rect x="150.0" y="130.0" width="42.4" height="6.0" rx="1" fill="#EDEEF2"/>
  <text x="171.2" y="135.0" font-size="4" fill="#1E293B" font-weight="500" text-anchor="middle">onlyAdmin config</text>
  <rect x="201.0" y="130.0" width="42.4" height="6.0" rx="1" fill="#EDEEF2"/>
  <text x="222.2" y="135.0" font-size="4" fill="#1E293B" font-weight="500" text-anchor="middle">onlyOwner config</text>
  <rect x="81.1" y="128.0" width="66.4" height="6.0" rx="1" fill="#EDEEF2"/>
  <text x="114.3" y="133.0" font-size="4" fill="#1E293B" font-weight="500" text-anchor="middle">deploy + transferOwnership</text>
  <rect x="135.3" y="191.0" width="30.4" height="6.0" rx="1" fill="#EDEEF2"/>
  <text x="150.5" y="196.0" font-size="4" fill="#1E293B" font-weight="500" text-anchor="middle">mint / burn</text>
  <rect x="242.9" y="192.0" width="49.6" height="6.0" rx="1" fill="#EDEEF2"/>
  <text x="267.7" y="197.0" font-size="4" fill="#1E293B" font-weight="500" text-anchor="middle">createWithDurations</text>
  <rect x="155.9" y="184.0" width="76.0" height="6.0" rx="1" fill="#EDEEF2"/>
  <text x="193.9" y="189.0" font-size="4" fill="#1E293B" font-weight="500" text-anchor="middle">getPtToSyRate / getOracleState</text>
  <rect x="350.9" y="192.0" width="49.6" height="6.0" rx="1" fill="#EDEEF2"/>
  <text x="375.7" y="197.0" font-size="4" fill="#1E293B" font-weight="500" text-anchor="middle">price / eligibility</text>
  <rect x="289.1" y="184.0" width="59.2" height="6.0" rx="1" fill="#EDEEF2"/>
  <text x="318.7" y="189.0" font-size="4" fill="#1E293B" font-weight="500" text-anchor="middle">transferFrom / withdraw</text>
  <rect x="211.2" y="199.0" width="78.4" height="6.0" rx="1" fill="#EDEEF2"/>
  <text x="250.4" y="204.0" font-size="4" fill="#1E293B" font-weight="500" text-anchor="middle">series() read via StreamPricing</text>
  <rect x="286.7" y="192.0" width="76.0" height="6.0" rx="1" fill="#EDEEF2"/>
  <text x="324.7" y="197.0" font-size="4" fill="#1E293B" font-weight="500" text-anchor="middle">IOVRFLOSeriesRegistry.series()</text>
  <rect x="89.6" y="203.9" width="85.6" height="6.0" rx="1" fill="#EDEEF2"/>
  <text x="132.4" y="208.9" font-size="4" fill="#1E293B" font-weight="500" text-anchor="middle">deposit / wrap / claim / flashLoan</text>
  <rect x="228.5" y="222.0" width="76.0" height="6.0" rx="1" fill="#EDEEF2"/>
  <text x="266.5" y="227.0" font-size="4" fill="#1E293B" font-weight="500" text-anchor="middle">supply / sell / borrow / claim</text>
  <rect x="118.8" y="254.0" width="47.2" height="6.0" rx="1" fill="#F8F9FB"/>
  <text x="142.4" y="259.0" font-size="4" fill="#1E293B" font-weight="500" text-anchor="middle">swap PT (off-path)</text>
</svg>