<svg xmlns="http://www.w3.org/2000/svg" width="971" height="645" viewBox="0 0 389 258" font-family="Arial, sans-serif">
  <defs>
    <marker id="ah" viewBox="0 0 8 6" refX="8" refY="3"
      markerWidth="4" markerHeight="3" orient="auto">
      <path d="M0.5,0.5 L7,3 L0.5,5.5" fill="none" stroke="#94A3B8"
        stroke-width="1.2" stroke-linejoin="round" stroke-linecap="round"/>
    </marker>
    <filter id="shadow" x="-6%" y="-8%" width="112%" height="128%">
      <feDropShadow dx="0" dy="0.5" stdDeviation="0.8"
        flood-color="#000" flood-opacity="0.05"/>
    </filter>
  </defs>
  <rect width="389" height="258" fill="#F8F9FB" rx="3"/>
  <text x="194" y="11" text-anchor="middle" font-size="6" font-weight="700" fill="#1E293B">OVRFLO Architecture</text>
  <rect x="119" y="16" width="150" height="10" rx="3" fill="#fff" stroke="#E2E5EA" stroke-width="0.4"/>
  <rect x="124" y="18.5" width="5" height="5" rx="2.5" fill="#fff" stroke="#E2E5EA" stroke-width="0.4"/>
  <text x="132" y="22.5" font-size="3.5" fill="#1E293B">Actor</text>
  <rect x="164" y="18.5" width="5" height="5" rx="1.5" fill="#fff" stroke="#E2E5EA" stroke-width="0.4"/>
  <rect x="165" y="19.5" width="0.8" height="3" rx="0.4" fill="#3B82F6"/>
  <text x="172" y="22.5" font-size="3.5" fill="#1E293B">Protocol</text>
  <rect x="212" y="18.5" width="5" height="5" rx="1.5" fill="#fff" stroke="#E2E5EA" stroke-width="0.4"/>
  <rect x="213" y="19.5" width="0.8" height="3" rx="0.4" fill="#F59E0B"/>
  <text x="220" y="22.5" font-size="3.5" fill="#1E293B">External</text>
  <path d="M85.6,46.0 C85.6,70.0 106.2,70.0 106.2,94.0" fill="none" stroke="#94A3B8" stroke-width="0.5" marker-end="url(#ah)"/>
  <path d="M203.8,46.0 C203.8,70.0 167.3,70.0 167.3,94.0" fill="none" stroke="#94A3B8" stroke-width="0.5" marker-end="url(#ah)"/>
  <path d="M167.3,94.0 Q164.2,104.0 130.9,156.0" fill="none" stroke="#94A3B8" stroke-width="0.5" marker-end="url(#ah)"/>
  <path d="M203.8,46.0 Q166.2,104.0 216.2,94.0" fill="none" stroke="#94A3B8" stroke-width="0.5" marker-end="url(#ah)"/>
  <path d="M216.2,94.0 Q266.6,104.0 228.7,156.0" fill="none" stroke="#94A3B8" stroke-width="0.5" marker-end="url(#ah)"/>
  <path d="M106.2,114.0 C106.2,135.0 130.9,135.0 130.9,156.0" fill="none" stroke="#94A3B8" stroke-width="0.5" marker-end="url(#ah)"/>
  <path d="M106.2,114.0 C106.2,135.0 228.7,135.0 228.7,156.0" fill="none" stroke="#94A3B8" stroke-width="0.5" marker-end="url(#ah)"/>
  <path d="M106.2,114.0 Q80.3,166.0 99.9,156.0" fill="none" stroke="#94A3B8" stroke-width="0.5" marker-end="url(#ah)"/>
  <path d="M99.9,156.0 Q78.3,166.0 93.6,218.0" fill="none" stroke="#94A3B8" stroke-width="0.5" marker-end="url(#ah)"/>
  <path d="M152.2,112.0 C158.8,126.0 167.6,126.0 174.2,114.0" fill="none" stroke="#94A3B8" stroke-width="0.5" marker-end="url(#ah)"/>
  <path d="M171.5,174.0 C205.8,192.0 251.6,192.0 285.9,176.0" fill="none" stroke="#94A3B8" stroke-width="0.5" marker-end="url(#ah)"/>
  <path d="M130.9,176.0 C130.9,197.0 198.0,197.0 198.0,218.0" fill="none" stroke="#94A3B8" stroke-width="0.5" marker-end="url(#ah)"/>
  <path d="M130.9,176.0 C130.9,197.0 93.6,197.0 93.6,218.0" fill="none" stroke="#94A3B8" stroke-width="0.5" marker-end="url(#ah)"/>
  <path d="M228.7,176.0 C228.7,197.0 302.4,197.0 302.4,218.0" fill="none" stroke="#94A3B8" stroke-width="0.5" marker-end="url(#ah)"/>
  <path d="M228.7,176.0 C228.7,197.0 198.0,197.0 198.0,218.0" fill="none" stroke="#94A3B8" stroke-width="0.5" marker-end="url(#ah)"/>
  <path d="M193.5,174.0 C186.9,188.0 178.1,188.0 171.5,176.0" fill="none" stroke="#94A3B8" stroke-width="0.5" marker-end="url(#ah)"/>
  <g filter="url(#shadow)">
    <rect x="30.0" y="32.0" width="111.2" height="14" rx="7" fill="#fff" stroke="#E2E5EA" stroke-width="0.5"/>
    <text x="85.6" y="40.8" text-anchor="middle" font-size="4.8" font-weight="600" fill="#1E293B">Timelocked Multisig</text>
  </g>
  <g filter="url(#shadow)">
    <rect x="163.2" y="32.0" width="81.2" height="14" rx="7" fill="#fff" stroke="#E2E5EA" stroke-width="0.5"/>
    <text x="203.8" y="40.8" text-anchor="middle" font-size="4.8" font-weight="600" fill="#1E293B">User</text>
  </g>
  <g filter="url(#shadow)">
    <rect x="60.2" y="94.0" width="92.0" height="20" rx="3" fill="#fff" stroke="#E2E5EA" stroke-width="0.5"/>
    <rect x="63.2" y="97.0" width="1.4" height="14" rx="0.6" fill="#3B82F6"/>
    <text x="106.2" y="103.5" text-anchor="middle" font-size="4.8" font-weight="600" fill="#1E293B">OVRFLOFactory</text>
    <text x="106.2" y="108.5" text-anchor="middle" font-size="3.5" fill="#64748B">Deployer + Admin Hub</text>
  </g>
  <g filter="url(#shadow)">
    <rect x="174.2" y="94.0" width="82.4" height="20" rx="3" fill="#fff" stroke="#E2E5EA" stroke-width="0.5"/>
    <rect x="177.2" y="97.0" width="1.4" height="14" rx="0.6" fill="#F59E0B"/>
    <text x="215.4" y="103.5" text-anchor="middle" font-size="4.8" font-weight="600" fill="#1E293B">Pendle Market</text>
    <text x="215.4" y="108.5" text-anchor="middle" font-size="3.5" fill="#64748B">PT / SY / YT</text>
  </g>
  <g filter="url(#shadow)">
    <rect x="90.3" y="156.0" width="81.2" height="20" rx="3" fill="#fff" stroke="#E2E5EA" stroke-width="0.5"/>
    <rect x="93.3" y="159.0" width="1.4" height="14" rx="0.6" fill="#3B82F6"/>
    <text x="130.9" y="165.5" text-anchor="middle" font-size="4.8" font-weight="600" fill="#1E293B">OVRFLO</text>
    <text x="130.9" y="170.5" text-anchor="middle" font-size="3.5" fill="#64748B">Collateral Engine</text>
  </g>
  <g filter="url(#shadow)">
    <rect x="285.9" y="156.0" width="72.8" height="20" rx="3" fill="#fff" stroke="#E2E5EA" stroke-width="0.5"/>
    <rect x="288.9" y="159.0" width="1.4" height="14" rx="0.6" fill="#3B82F6"/>
    <text x="322.3" y="165.5" text-anchor="middle" font-size="4.8" font-weight="600" fill="#1E293B">OVRFLOToken</text>
    <text x="322.3" y="170.5" text-anchor="middle" font-size="3.5" fill="#64748B">ERC20 Wrapper</text>
  </g>
  <g filter="url(#shadow)">
    <rect x="193.5" y="156.0" width="70.4" height="20" rx="3" fill="#fff" stroke="#E2E5EA" stroke-width="0.5"/>
    <rect x="196.5" y="159.0" width="1.4" height="14" rx="0.6" fill="#3B82F6"/>
    <text x="228.7" y="165.5" text-anchor="middle" font-size="4.8" font-weight="600" fill="#1E293B">OVRFLOBook</text>
    <text x="228.7" y="170.5" text-anchor="middle" font-size="3.5" fill="#64748B">Lending Market</text>
  </g>
  <g filter="url(#shadow)">
    <rect x="261.2" y="218.0" width="82.4" height="20" rx="3" fill="#fff" stroke="#E2E5EA" stroke-width="0.5"/>
    <rect x="264.2" y="221.0" width="1.4" height="14" rx="0.6" fill="#3B82F6"/>
    <text x="302.4" y="227.5" text-anchor="middle" font-size="4.8" font-weight="600" fill="#1E293B">StreamPricing</text>
    <text x="302.4" y="232.5" text-anchor="middle" font-size="3.5" fill="#64748B">Pricing Library</text>
  </g>
  <g filter="url(#shadow)">
    <rect x="52.4" y="218.0" width="82.4" height="20" rx="3" fill="#fff" stroke="#E2E5EA" stroke-width="0.5"/>
    <rect x="55.4" y="221.0" width="1.4" height="14" rx="0.6" fill="#F59E0B"/>
    <text x="93.6" y="227.5" text-anchor="middle" font-size="4.8" font-weight="600" fill="#1E293B">Pendle Oracle</text>
    <text x="93.6" y="232.5" text-anchor="middle" font-size="3.5" fill="#64748B">TWAP Rate</text>
  </g>
  <g filter="url(#shadow)">
    <rect x="156.8" y="218.0" width="82.4" height="20" rx="3" fill="#fff" stroke="#E2E5EA" stroke-width="0.5"/>
    <rect x="159.8" y="221.0" width="1.4" height="14" rx="0.6" fill="#F59E0B"/>
    <text x="198.0" y="227.5" text-anchor="middle" font-size="4.8" font-weight="600" fill="#1E293B">Sablier V2 LL</text>
    <text x="198.0" y="232.5" text-anchor="middle" font-size="3.5" fill="#64748B">Streaming</text>
  </g>
  <rect x="89.1" y="65.0" width="13.6" height="6.0" rx="1" fill="#F8F9FB"/>
  <text x="95.9" y="70.0" font-size="4" fill="#1E293B" font-weight="500" text-anchor="middle">owns</text>
  <rect x="131.6" y="120.6" width="37.6" height="6.0" rx="1" fill="#F8F9FB"/>
  <text x="150.4" y="125.6" font-size="4" fill="#1E293B" font-weight="500" text-anchor="middle">deposit / wrap</text>
  <rect x="261.1" y="104.3" width="35.2" height="6.0" rx="1" fill="#F8F9FB"/>
  <text x="278.7" y="109.3" font-size="4" fill="#1E293B" font-weight="500" text-anchor="middle">borrow / lend</text>
  <rect x="99.7" y="130.0" width="37.6" height="6.0" rx="1" fill="#F8F9FB"/>
  <text x="118.5" y="135.0" font-size="4" fill="#1E293B" font-weight="500" text-anchor="middle">deploy + admin</text>
  <rect x="151.0" y="130.0" width="32.8" height="6.0" rx="1" fill="#F8F9FB"/>
  <text x="167.4" y="135.0" font-size="4" fill="#1E293B" font-weight="500" text-anchor="middle">deploy + own</text>
  <rect x="67.4" y="179.6" width="30.4" height="6.0" rx="1" fill="#F8F9FB"/>
  <text x="82.6" y="184.6" font-size="4" fill="#1E293B" font-weight="500" text-anchor="middle">oracle prep</text>
  <rect x="142.0" y="137.0" width="42.4" height="6.0" rx="1" fill="#F8F9FB"/>
  <text x="163.2" y="142.0" font-size="4" fill="#1E293B" font-weight="500" text-anchor="middle">read PT / expiry</text>
  <rect x="213.5" y="191.0" width="30.4" height="6.0" rx="1" fill="#F8F9FB"/>
  <text x="228.7" y="196.0" font-size="4" fill="#1E293B" font-weight="500" text-anchor="middle">mint / burn</text>
  <rect x="145.6" y="192.0" width="37.6" height="6.0" rx="1" fill="#F8F9FB"/>
  <text x="164.4" y="197.0" font-size="4" fill="#1E293B" font-weight="500" text-anchor="middle">create streams</text>
  <rect x="99.4" y="192.0" width="25.6" height="6.0" rx="1" fill="#F8F9FB"/>
  <text x="112.2" y="197.0" font-size="4" fill="#1E293B" font-weight="500" text-anchor="middle">TWAP rate</text>
  <rect x="248.7" y="190.0" width="49.6" height="6.0" rx="1" fill="#F8F9FB"/>
  <text x="273.5" y="195.0" font-size="4" fill="#1E293B" font-weight="500" text-anchor="middle">price + eligibility</text>
  <rect x="190.9" y="184.0" width="44.8" height="6.0" rx="1" fill="#F8F9FB"/>
  <text x="213.3" y="189.0" font-size="4" fill="#1E293B" font-weight="500" text-anchor="middle">escrow + withdraw</text>
  <rect x="148.9" y="183.0" width="35.2" height="6.0" rx="1" fill="#F8F9FB"/>
  <text x="166.5" y="188.0" font-size="4" fill="#1E293B" font-weight="500" text-anchor="middle">series lookup</text>
</svg>