<svg xmlns="http://www.w3.org/2000/svg" width="1208" height="490" viewBox="0 0 483 196" font-family="Arial, sans-serif">
  <defs>
    <marker id="ah" viewBox="0 0 8 6" refX="8" refY="3"
      markerWidth="4" markerHeight="3" orient="auto">
      <path d="M0.5,0.5 L7,3 L0.5,5.5" fill="none" stroke="#94A3B8"
        stroke-width="1.2" stroke-linejoin="round" stroke-linecap="round"/>
    </marker>
    <filter id="shadow" x="-6%" y="-8%" width="112%" height="128%">
      <feDropShadow dx="0" dy="0.5" stdDeviation="0.8"
        flood-color="#000" flood-opacity="0.05"/>
    </filter>
  </defs>
  <rect width="483" height="196" fill="#F8F9FB" rx="3"/>
  <text x="242" y="11" text-anchor="middle" font-size="6" font-weight="700" fill="#1E293B">OVRFLO Architecture</text>
  <rect x="167" y="16" width="150" height="10" rx="3" fill="#fff" stroke="#E2E5EA" stroke-width="0.4"/>
  <rect x="172" y="18.5" width="5" height="5" rx="2.5" fill="#fff" stroke="#E2E5EA" stroke-width="0.4"/>
  <text x="180" y="22.5" font-size="3.5" fill="#1E293B">Actor</text>
  <rect x="212" y="18.5" width="5" height="5" rx="1.5" fill="#fff" stroke="#E2E5EA" stroke-width="0.4"/>
  <rect x="213" y="19.5" width="0.8" height="3" rx="0.4" fill="#3B82F6"/>
  <text x="220" y="22.5" font-size="3.5" fill="#1E293B">Protocol</text>
  <rect x="260" y="18.5" width="5" height="5" rx="1.5" fill="#fff" stroke="#E2E5EA" stroke-width="0.4"/>
  <rect x="261" y="19.5" width="0.8" height="3" rx="0.4" fill="#F59E0B"/>
  <text x="268" y="22.5" font-size="3.5" fill="#1E293B">External</text>
  <rect x="58.2" y="84.0" width="405.2" height="102.0" rx="5" fill="#EDEEF2"/>
  <text x="460.4" y="89.0" text-anchor="end" font-size="3.5" fill="#94A3B8" font-weight="500">In-Scope Contracts</text>
  <rect x="58.2" y="146.0" width="405.2" height="40.0" rx="5" fill="#EDEEF2"/>
  <text x="460.4" y="151.0" text-anchor="end" font-size="3.5" fill="#94A3B8" font-weight="500">External Dependencies</text>
  <path d="M85.6,46.0 C85.6,70.0 109.4,70.0 109.4,94.0" fill="none" stroke="#94A3B8" stroke-width="0.5" marker-end="url(#ah)"/>
  <path d="M237.6,46.0 C237.6,70.0 230.6,70.0 230.6,94.0" fill="none" stroke="#94A3B8" stroke-width="0.5" marker-end="url(#ah)"/>
  <path d="M237.6,46.0 C237.6,70.0 321.4,70.0 321.4,94.0" fill="none" stroke="#94A3B8" stroke-width="0.5" marker-end="url(#ah)"/>
  <path d="M150.6,112.0 C165.6,126.0 185.6,126.0 200.6,114.0" fill="none" stroke="#94A3B8" stroke-width="0.5" marker-end="url(#ah)"/>
  <path d="M150.6,112.0 C190.2,130.0 243.0,130.0 282.6,114.0" fill="none" stroke="#94A3B8" stroke-width="0.5" marker-end="url(#ah)"/>
  <path d="M109.4,114.0 C109.4,135.0 216.6,135.0 216.6,156.0" fill="none" stroke="#94A3B8" stroke-width="0.5" marker-end="url(#ah)"/>
  <path d="M230.6,114.0 C230.6,135.0 216.6,135.0 216.6,156.0" fill="none" stroke="#94A3B8" stroke-width="0.5" marker-end="url(#ah)"/>
  <path d="M230.6,114.0 C230.6,135.0 416.4,135.0 416.4,156.0" fill="none" stroke="#94A3B8" stroke-width="0.5" marker-end="url(#ah)"/>
  <path d="M230.6,114.0 C230.6,135.0 121.2,135.0 121.2,156.0" fill="none" stroke="#94A3B8" stroke-width="0.5" marker-end="url(#ah)"/>
  <path d="M321.4,114.0 C321.4,135.0 416.4,135.0 416.4,156.0" fill="none" stroke="#94A3B8" stroke-width="0.5" marker-end="url(#ah)"/>
  <path d="M321.4,114.0 C321.4,135.0 316.2,135.0 316.2,156.0" fill="none" stroke="#94A3B8" stroke-width="0.5" marker-end="url(#ah)"/>
  <path d="M230.6,114.0 C230.6,135.0 316.2,135.0 316.2,156.0" fill="none" stroke="#94A3B8" stroke-width="0.5" marker-end="url(#ah)"/>
  <path d="M109.4,114.0 C109.4,135.0 121.2,135.0 121.2,156.0" fill="none" stroke="#94A3B8" stroke-width="0.5" marker-end="url(#ah)"/>
  <path d="M316.2,156.0 C316.2,135.0 109.4,135.0 109.4,114.0" fill="none" stroke="#94A3B8" stroke-width="0.5" marker-end="url(#ah)"/>
  <g filter="url(#shadow)">
    <rect x="30.0" y="32.0" width="111.2" height="14" rx="7" fill="#fff" stroke="#E2E5EA" stroke-width="0.5"/>
    <text x="85.6" y="40.8" text-anchor="middle" font-size="4.8" font-weight="600" fill="#1E293B">Timelocked Multisig</text>
  </g>
  <g filter="url(#shadow)">
    <rect x="191.6" y="32.0" width="92.0" height="14" rx="7" fill="#fff" stroke="#E2E5EA" stroke-width="0.5"/>
    <text x="237.6" y="40.8" text-anchor="middle" font-size="4.8" font-weight="600" fill="#1E293B">Users</text>
  </g>
  <g filter="url(#shadow)">
    <rect x="200.6" y="94.0" width="60.0" height="20" rx="3" fill="#fff" stroke="#E2E5EA" stroke-width="0.5"/>
    <rect x="203.6" y="97.0" width="1.4" height="14" rx="0.6" fill="#3B82F6"/>
    <text x="230.6" y="103.5" text-anchor="middle" font-size="4.8" font-weight="600" fill="#1E293B">OVRFLO</text>
    <text x="230.6" y="108.5" text-anchor="middle" font-size="3.5" fill="#64748B">Vault Core</text>
  </g>
  <g filter="url(#shadow)">
    <rect x="68.2" y="94.0" width="82.4" height="20" rx="3" fill="#fff" stroke="#E2E5EA" stroke-width="0.5"/>
    <rect x="71.2" y="97.0" width="1.4" height="14" rx="0.6" fill="#3B82F6"/>
    <text x="109.4" y="103.5" text-anchor="middle" font-size="4.8" font-weight="600" fill="#1E293B">OVRFLOFactory</text>
    <text x="109.4" y="108.5" text-anchor="middle" font-size="3.5" fill="#64748B">Admin Hub</text>
  </g>
  <g filter="url(#shadow)">
    <rect x="282.6" y="94.0" width="77.6" height="20" rx="3" fill="#fff" stroke="#E2E5EA" stroke-width="0.5"/>
    <rect x="285.6" y="97.0" width="1.4" height="14" rx="0.6" fill="#3B82F6"/>
    <text x="321.4" y="103.5" text-anchor="middle" font-size="4.8" font-weight="600" fill="#1E293B">OVRFLOBook</text>
    <text x="321.4" y="108.5" text-anchor="middle" font-size="3.5" fill="#64748B">Secondary Market</text>
  </g>
  <g filter="url(#shadow)">
    <rect x="84.2" y="156.0" width="74.0" height="20" rx="3" fill="#fff" stroke="#E2E5EA" stroke-width="0.5"/>
    <rect x="87.2" y="159.0" width="1.4" height="14" rx="0.6" fill="#F59E0B"/>
    <text x="121.2" y="165.5" text-anchor="middle" font-size="4.8" font-weight="600" fill="#1E293B">Pendle</text>
    <text x="121.2" y="170.5" text-anchor="middle" font-size="3.5" fill="#64748B">Oracle / Market</text>
  </g>
  <g filter="url(#shadow)">
    <rect x="180.2" y="156.0" width="72.8" height="20" rx="3" fill="#fff" stroke="#E2E5EA" stroke-width="0.5"/>
    <rect x="183.2" y="159.0" width="1.4" height="14" rx="0.6" fill="#3B82F6"/>
    <text x="216.6" y="165.5" text-anchor="middle" font-size="4.8" font-weight="600" fill="#1E293B">OVRFLOToken</text>
    <text x="216.6" y="170.5" text-anchor="middle" font-size="3.5" fill="#64748B">Wrapper ERC20</text>
  </g>
  <g filter="url(#shadow)">
    <rect x="275.0" y="156.0" width="82.4" height="20" rx="3" fill="#fff" stroke="#E2E5EA" stroke-width="0.5"/>
    <rect x="278.0" y="159.0" width="1.4" height="14" rx="0.6" fill="#3B82F6"/>
    <text x="316.2" y="165.5" text-anchor="middle" font-size="4.8" font-weight="600" fill="#1E293B">StreamPricing</text>
    <text x="316.2" y="170.5" text-anchor="middle" font-size="3.5" fill="#64748B">Pricing Library</text>
  </g>
  <g filter="url(#shadow)">
    <rect x="379.4" y="156.0" width="74.0" height="20" rx="3" fill="#fff" stroke="#E2E5EA" stroke-width="0.5"/>
    <rect x="382.4" y="159.0" width="1.4" height="14" rx="0.6" fill="#F59E0B"/>
    <text x="416.4" y="165.5" text-anchor="middle" font-size="4.8" font-weight="600" fill="#1E293B">Sablier V2</text>
    <text x="416.4" y="170.5" text-anchor="middle" font-size="3.5" fill="#64748B">Stream Protocol</text>
  </g>
  <rect x="90.7" y="65.0" width="13.6" height="6.0" rx="1" fill="#F8F9FB"/>
  <text x="97.5" y="70.0" font-size="4" fill="#1E293B" font-weight="500" text-anchor="middle">owns</text>
  <rect x="215.3" y="65.0" width="37.6" height="6.0" rx="1" fill="#F8F9FB"/>
  <text x="234.1" y="70.0" font-size="4" fill="#1E293B" font-weight="500" text-anchor="middle">deposit / wrap</text>
  <rect x="261.9" y="65.0" width="35.2" height="6.0" rx="1" fill="#F8F9FB"/>
  <text x="279.5" y="70.0" font-size="4" fill="#1E293B" font-weight="500" text-anchor="middle">trade streams</text>
  <rect x="152.0" y="125.0" width="47.2" height="6.0" rx="1" fill="#EDEEF2"/>
  <text x="175.6" y="130.0" font-size="4" fill="#1E293B" font-weight="500" text-anchor="middle">deploy / configure</text>
  <rect x="197.8" y="133.0" width="37.6" height="6.0" rx="1" fill="#EDEEF2"/>
  <text x="216.6" y="138.0" font-size="4" fill="#1E293B" font-weight="500" text-anchor="middle">deploy / admin</text>
  <rect x="153.8" y="134.0" width="18.4" height="6.0" rx="1" fill="#EDEEF2"/>
  <text x="163.0" y="139.0" font-size="4" fill="#1E293B" font-weight="500" text-anchor="middle">deploy</text>
  <rect x="208.4" y="126.0" width="30.4" height="6.0" rx="1" fill="#EDEEF2"/>
  <text x="223.6" y="131.0" font-size="4" fill="#1E293B" font-weight="500" text-anchor="middle">mint / burn</text>
  <rect x="304.7" y="130.0" width="37.6" height="6.0" rx="1" fill="#EDEEF2"/>
  <text x="323.5" y="135.0" font-size="4" fill="#1E293B" font-weight="500" text-anchor="middle">create streams</text>
  <rect x="163.1" y="142.0" width="25.6" height="6.0" rx="1" fill="#EDEEF2"/>
  <text x="175.9" y="147.0" font-size="4" fill="#1E293B" font-weight="500" text-anchor="middle">TWAP rate</text>
  <rect x="351.3" y="130.0" width="35.2" height="6.0" rx="1" fill="#EDEEF2"/>
  <text x="368.9" y="135.0" font-size="4" fill="#1E293B" font-weight="500" text-anchor="middle">escrow / draw</text>
  <rect x="294.0" y="122.0" width="49.6" height="6.0" rx="1" fill="#EDEEF2"/>
  <text x="318.8" y="127.0" font-size="4" fill="#1E293B" font-weight="500" text-anchor="middle">price / eligibility</text>
  <rect x="257.0" y="130.0" width="32.8" height="6.0" rx="1" fill="#EDEEF2"/>
  <text x="273.4" y="135.0" font-size="4" fill="#1E293B" font-weight="500" text-anchor="middle">market check</text>
  <rect x="100.1" y="130.0" width="30.4" height="6.0" rx="1" fill="#EDEEF2"/>
  <text x="115.3" y="135.0" font-size="4" fill="#1E293B" font-weight="500" text-anchor="middle">validate SY</text>
  <rect x="192.8" y="142.0" width="40.0" height="6.0" rx="1" fill="#EDEEF2"/>
  <text x="212.8" y="147.0" font-size="4" fill="#1E293B" font-weight="500" text-anchor="middle">registry lookup</text>
</svg>