<svg xmlns="http://www.w3.org/2000/svg" width="1384" height="645" viewBox="0 0 554 258" font-family="Arial, sans-serif">
  <defs>
    <marker id="ah" viewBox="0 0 8 6" refX="8" refY="3"
      markerWidth="4" markerHeight="3" orient="auto">
      <path d="M0.5,0.5 L7,3 L0.5,5.5" fill="none" stroke="#94A3B8"
        stroke-width="1.2" stroke-linejoin="round" stroke-linecap="round"/>
    </marker>
    <filter id="shadow" x="-6%" y="-8%" width="112%" height="128%">
      <feDropShadow dx="0" dy="0.5" stdDeviation="0.8"
        flood-color="#000" flood-opacity="0.05"/>
    </filter>
  </defs>
  <rect width="554" height="258" fill="#F8F9FB" rx="3"/>
  <text x="277" y="11" text-anchor="middle" font-size="6" font-weight="700" fill="#1E293B">OVRFLO Architecture</text>
  <rect x="202" y="16" width="150" height="10" rx="3" fill="#fff" stroke="#E2E5EA" stroke-width="0.4"/>
  <rect x="207" y="18.5" width="5" height="5" rx="2.5" fill="#fff" stroke="#E2E5EA" stroke-width="0.4"/>
  <text x="215" y="22.5" font-size="3.5" fill="#1E293B">Actor</text>
  <rect x="247" y="18.5" width="5" height="5" rx="1.5" fill="#fff" stroke="#E2E5EA" stroke-width="0.4"/>
  <rect x="248" y="19.5" width="0.8" height="3" rx="0.4" fill="#3B82F6"/>
  <text x="255" y="22.5" font-size="3.5" fill="#1E293B">Protocol</text>
  <rect x="295" y="18.5" width="5" height="5" rx="1.5" fill="#fff" stroke="#E2E5EA" stroke-width="0.4"/>
  <rect x="296" y="19.5" width="0.8" height="3" rx="0.4" fill="#F59E0B"/>
  <text x="303" y="22.5" font-size="3.5" fill="#1E293B">External</text>
  <path d="M85.6,46.0 C85.6,70.0 105.9,70.0 105.9,94.0" fill="none" stroke="#94A3B8" stroke-width="0.5" marker-end="url(#ah)"/>
  <path d="M259.2,46.0 C259.2,70.0 299.0,70.0 299.0,94.0" fill="none" stroke="#94A3B8" stroke-width="0.5" marker-end="url(#ah)"/>
  <path d="M394.8,46.0 C394.8,70.0 299.0,70.0 299.0,94.0" fill="none" stroke="#94A3B8" stroke-width="0.5" marker-end="url(#ah)"/>
  <path d="M147.1,112.0 C178.9,126.0 221.2,126.0 253.0,114.0" fill="none" stroke="#94A3B8" stroke-width="0.5" marker-end="url(#ah)"/>
  <path d="M105.9,114.0 C105.9,135.0 188.9,135.0 188.9,156.0" fill="none" stroke="#94A3B8" stroke-width="0.5" marker-end="url(#ah)"/>
  <path d="M299.0,114.0 C299.0,135.0 188.9,135.0 188.9,156.0" fill="none" stroke="#94A3B8" stroke-width="0.5" marker-end="url(#ah)"/>
  <path d="M299.0,114.0 C299.0,135.0 277.9,135.0 277.9,156.0" fill="none" stroke="#94A3B8" stroke-width="0.5" marker-end="url(#ah)"/>
  <path d="M299.0,114.0 C299.0,135.0 378.1,135.0 378.1,156.0" fill="none" stroke="#94A3B8" stroke-width="0.5" marker-end="url(#ah)"/>
  <path d="M299.0,114.0 C299.0,135.0 482.5,135.0 482.5,156.0" fill="none" stroke="#94A3B8" stroke-width="0.5" marker-end="url(#ah)"/>
  <path d="M419.3,174.0 C425.9,188.0 434.7,188.0 441.3,176.0" fill="none" stroke="#94A3B8" stroke-width="0.5" marker-end="url(#ah)"/>
  <path d="M218.9,174.0 C285.6,192.0 374.6,192.0 441.3,176.0" fill="none" stroke="#94A3B8" stroke-width="0.5" marker-end="url(#ah)"/>
  <path d="M188.9,176.0 C188.9,197.0 165.6,197.0 165.6,218.0" fill="none" stroke="#94A3B8" stroke-width="0.5" marker-end="url(#ah)"/>
  <path d="M188.9,176.0 C188.9,197.0 275.4,197.0 275.4,218.0" fill="none" stroke="#94A3B8" stroke-width="0.5" marker-end="url(#ah)"/>
  <g filter="url(#shadow)">
    <rect x="30.0" y="32.0" width="111.2" height="14" rx="7" fill="#fff" stroke="#E2E5EA" stroke-width="0.5"/>
    <text x="85.6" y="40.8" text-anchor="middle" font-size="4.8" font-weight="600" fill="#1E293B">Timelocked Multisig</text>
  </g>
  <g filter="url(#shadow)">
    <rect x="202.4" y="32.0" width="113.6" height="14" rx="7" fill="#fff" stroke="#E2E5EA" stroke-width="0.5"/>
    <text x="259.2" y="40.8" text-anchor="middle" font-size="4.8" font-weight="600" fill="#1E293B">Lender</text>
  </g>
  <g filter="url(#shadow)">
    <rect x="338.0" y="32.0" width="113.6" height="14" rx="7" fill="#fff" stroke="#E2E5EA" stroke-width="0.5"/>
    <text x="394.8" y="40.8" text-anchor="middle" font-size="4.8" font-weight="600" fill="#1E293B">Borrower</text>
  </g>
  <g filter="url(#shadow)">
    <rect x="64.7" y="94.0" width="82.4" height="20" rx="3" fill="#fff" stroke="#E2E5EA" stroke-width="0.5"/>
    <rect x="67.7" y="97.0" width="1.4" height="14" rx="0.6" fill="#3B82F6"/>
    <text x="105.9" y="103.5" text-anchor="middle" font-size="4.8" font-weight="600" fill="#1E293B">OVRFLOFactory</text>
    <text x="105.9" y="108.5" text-anchor="middle" font-size="3.5" fill="#64748B">Admin hub</text>
  </g>
  <g filter="url(#shadow)">
    <rect x="253.0" y="94.0" width="92.0" height="20" rx="3" fill="#fff" stroke="#E2E5EA" stroke-width="0.5"/>
    <rect x="256.0" y="97.0" width="1.4" height="14" rx="0.6" fill="#3B82F6"/>
    <text x="299.0" y="103.5" text-anchor="middle" font-size="4.8" font-weight="600" fill="#1E293B">OVRFLOLending</text>
    <text x="299.0" y="108.5" text-anchor="middle" font-size="3.5" fill="#64748B">Fixed-rate tick book</text>
  </g>
  <g filter="url(#shadow)">
    <rect x="158.9" y="156.0" width="60.0" height="20" rx="3" fill="#fff" stroke="#E2E5EA" stroke-width="0.5"/>
    <rect x="161.9" y="159.0" width="1.4" height="14" rx="0.6" fill="#3B82F6"/>
    <text x="188.9" y="165.5" text-anchor="middle" font-size="4.8" font-weight="600" fill="#1E293B">OVRFLO</text>
    <text x="188.9" y="170.5" text-anchor="middle" font-size="3.5" fill="#64748B">PT vault</text>
  </g>
  <g filter="url(#shadow)">
    <rect x="240.9" y="156.0" width="74.0" height="20" rx="3" fill="#fff" stroke="#E2E5EA" stroke-width="0.5"/>
    <rect x="243.9" y="159.0" width="1.4" height="14" rx="0.6" fill="#3B82F6"/>
    <text x="277.9" y="165.5" text-anchor="middle" font-size="4.8" font-weight="600" fill="#1E293B">TickTree</text>
    <text x="277.9" y="170.5" text-anchor="middle" font-size="3.5" fill="#64748B">Prefix-sum tape</text>
  </g>
  <g filter="url(#shadow)">
    <rect x="336.9" y="156.0" width="82.4" height="20" rx="3" fill="#fff" stroke="#E2E5EA" stroke-width="0.5"/>
    <rect x="339.9" y="159.0" width="1.4" height="14" rx="0.6" fill="#3B82F6"/>
    <text x="378.1" y="165.5" text-anchor="middle" font-size="4.8" font-weight="600" fill="#1E293B">StreamPricing</text>
    <text x="378.1" y="170.5" text-anchor="middle" font-size="3.5" fill="#64748B">Discount math</text>
  </g>
  <g filter="url(#shadow)">
    <rect x="441.3" y="156.0" width="82.4" height="20" rx="3" fill="#fff" stroke="#E2E5EA" stroke-width="0.5"/>
    <rect x="444.3" y="159.0" width="1.4" height="14" rx="0.6" fill="#F59E0B"/>
    <text x="482.5" y="165.5" text-anchor="middle" font-size="4.8" font-weight="600" fill="#1E293B">OVRFLO Streams</text>
    <text x="482.5" y="170.5" text-anchor="middle" font-size="3.5" fill="#64748B">Fork lockup / custody</text>
  </g>
  <g filter="url(#shadow)">
    <rect x="129.2" y="218.0" width="72.8" height="20" rx="3" fill="#fff" stroke="#E2E5EA" stroke-width="0.5"/>
    <rect x="132.2" y="221.0" width="1.4" height="14" rx="0.6" fill="#3B82F6"/>
    <text x="165.6" y="227.5" text-anchor="middle" font-size="4.8" font-weight="600" fill="#1E293B">OVRFLOToken</text>
    <text x="165.6" y="232.5" text-anchor="middle" font-size="3.5" fill="#64748B">ERC20 claim</text>
  </g>
  <g filter="url(#shadow)">
    <rect x="224.0" y="218.0" width="102.8" height="20" rx="3" fill="#fff" stroke="#E2E5EA" stroke-width="0.5"/>
    <rect x="227.0" y="221.0" width="1.4" height="14" rx="0.6" fill="#F59E0B"/>
    <text x="275.4" y="227.5" text-anchor="middle" font-size="4.8" font-weight="600" fill="#1E293B">Pendle</text>
    <text x="275.4" y="232.5" text-anchor="middle" font-size="3.5" fill="#64748B">PT market / TWAP oracle</text>
  </g>
  <rect x="74.5" y="65.0" width="42.4" height="6.0" rx="1" fill="#F8F9FB"/>
  <text x="95.7" y="70.0" font-size="4" fill="#1E293B" font-weight="500" text-anchor="middle">owns, configures</text>
  <rect x="249.5" y="65.0" width="59.2" height="6.0" rx="1" fill="#F8F9FB"/>
  <text x="279.1" y="70.0" font-size="4" fill="#1E293B" font-weight="500" text-anchor="middle">supply, withdraw, claim</text>
  <rect x="329.3" y="65.0" width="35.2" height="6.0" rx="1" fill="#F8F9FB"/>
  <text x="346.9" y="70.0" font-size="4" fill="#1E293B" font-weight="500" text-anchor="middle">borrow, repay</text>
  <rect x="170.5" y="125.0" width="59.2" height="6.0" rx="1" fill="#F8F9FB"/>
  <text x="200.1" y="130.0" font-size="4" fill="#1E293B" font-weight="500" text-anchor="middle">deploys, forwards admin</text>
  <rect x="127.4" y="130.0" width="40.0" height="6.0" rx="1" fill="#F8F9FB"/>
  <text x="147.4" y="135.0" font-size="4" fill="#1E293B" font-weight="500" text-anchor="middle">deploys, admins</text>
  <rect x="219.2" y="134.0" width="49.6" height="6.0" rx="1" fill="#F8F9FB"/>
  <text x="244.0" y="139.0" font-size="4" fill="#1E293B" font-weight="500" text-anchor="middle">reads series config</text>
  <rect x="267.3" y="126.0" width="42.4" height="6.0" rx="1" fill="#F8F9FB"/>
  <text x="288.5" y="131.0" font-size="4" fill="#1E293B" font-weight="500" text-anchor="middle">tape coordinates</text>
  <rect x="322.2" y="130.0" width="32.8" height="6.0" rx="1" fill="#F8F9FB"/>
  <text x="338.6" y="135.0" font-size="4" fill="#1E293B" font-weight="500" text-anchor="middle">prices fills</text>
  <rect x="368.4" y="130.0" width="44.8" height="6.0" rx="1" fill="#F8F9FB"/>
  <text x="390.8" y="135.0" font-size="4" fill="#1E293B" font-weight="500" text-anchor="middle">escrows, harvests</text>
  <rect x="409.1" y="187.0" width="42.4" height="6.0" rx="1" fill="#F8F9FB"/>
  <text x="430.3" y="192.0" font-size="4" fill="#1E293B" font-weight="500" text-anchor="middle">eligibility read</text>
  <rect x="310.1" y="191.0" width="40.0" height="6.0" rx="1" fill="#F8F9FB"/>
  <text x="330.1" y="196.0" font-size="4" fill="#1E293B" font-weight="500" text-anchor="middle">creates streams</text>
  <rect x="163.3" y="192.0" width="28.0" height="6.0" rx="1" fill="#F8F9FB"/>
  <text x="177.3" y="197.0" font-size="4" fill="#1E293B" font-weight="500" text-anchor="middle">mint, burn</text>
  <rect x="211.0" y="192.0" width="42.4" height="6.0" rx="1" fill="#F8F9FB"/>
  <text x="232.2" y="197.0" font-size="4" fill="#1E293B" font-weight="500" text-anchor="middle">PT custody, TWAP</text>
</svg>